<?xml version="1.0" encoding="utf-8"?><!DOCTYPE svg PUBLIC "-//W3C//DTD SVG 1.1//EN" "http://www.w3.org/Graphics/SVG/1.1/DTD/svg11.dtd"><svg viewBox="0 0 682.667 682.667" xmlns="http://www.w3.org/2000/svg" xmlns:xlink="http://www.w3.org/1999/xlink"><style>:root>svg{display:none}:root>svg:target{display:block}</style><svg fill="none" viewBox="0 0 24 24" id="all" xmlns="http://www.w3.org/2000/svg"><path d="M19.5 3h-15A1.5 1.5 0 003 4.5v15A1.5 1.5 0 004.5 21h15a1.5 1.5 0 001.5-1.5v-15A1.5 1.5 0 0019.5 3z" stroke="#d45658" stroke-linejoin="round"/><path d="M17 12H7M17 7.5H7M17 16.5H7" stroke="#d45658" stroke-linecap="round" stroke-linejoin="round"/></svg><svg fill="none" viewBox="0 0 24 24" id="arrowfatup" xmlns="http://www.w3.org/2000/svg"><path d="M3 11.25l9-9 9 9h-4.5v8.25a.75.75 0 01-.75.75h-7.5a.75.75 0 01-.75-.75v-8.25H3z" stroke="#fff" stroke-width="2" stroke-linecap="round" stroke-linejoin="round"/></svg><svg version="1.0" viewBox="0 0 512 512" id="art" xmlns="http://www.w3.org/2000/svg"><g fill="#d45658"><path d="M435.9 1.2c-.9.7-2.1 3.7-2.8 6.7-1.5 7.2-6.5 17.2-10.7 21.5-1.8 1.9-7.5 5.8-12.6 8.7-5.1 2.8-11.7 7-14.6 9.3-5.6 4.3-13 13.3-16.3 19.8-1.1 2.1-2.1 3.8-2.4 3.8-.2 0-3.3-1.1-6.7-2.4-34-12.7-78.8-13.9-119.8-3.2-32.2 8.4-61.5 22-91.1 42.2l-10.7 7.2-6-5.9C131 98.1 109.9 86 85.8 76.5c-15-5.8-17.3-6.3-19.8-4-1.1 1-2 2.5-2 3.3 0 .8 3 4.5 6.8 8.1 3.7 3.6 8.1 9.1 9.7 12.1 3 5.5 3 5.6 2.7 20-.1 8 .3 17.6.8 21.5 1.1 7.1 4.8 16.4 9.3 23l2.5 3.6-8.3 11c-50.7 67.5-72.9 166.3-54.4 242 11.2 46.2 37.8 80.6 71.4 92.5 3.6 1.3 8 1.8 16 1.8 9.6 0 12-.4 18.3-2.8 16.5-6.2 25.7-13.2 55.3-42.2 26.9-26.3 35.6-33 46.3-35.9 5.2-1.4 7.4-1.5 13-.7 14.1 2.2 22.5 8.5 30.5 22.8 12.7 22.6 20 30.5 32.9 35.5 7.8 3 23.2 3.7 32.5 1.5 8.8-2.1 20.2-7.3 28.1-13 16.5-11.8 46-48 64.6-79.2 29.6-49.6 43.3-95.1 43.2-143.4 0-20.7-1.9-35.8-6.7-54.5-7.8-30.4-23.5-62-41.2-82.9-8.4-9.9-8-9-5.5-13.3C442.2 86.1 445.9 70 446 41.5c0-19.7-1.6-37.4-3.7-39.8-1.9-2-4.3-2.2-6.4-.5zm-.9 58.6c-.6 6.2-2 14.5-3.1 18.5-3.7 13.1-13.1 27.8-22.6 34.9l-5.2 3.9-11.3-5.8-11.3-5.8-.3-6c-.5-8.2 1.2-15.5 6-25.5 5.6-11.6 12.8-18.6 27.7-27.1 8.2-4.6 12.7-7.9 16-11.6l4.6-5.2.3 9.2c.2 5.1-.2 14.3-.8 20.5zm-109.9 9.3c5.7.5 14.6 1.9 19.8 3.1 9.1 1.9 25.9 7.3 27.3 8.6.3.4 0 3.6-.8 7.2-1 4.3-1.3 9-.9 13.9.5 5.9.3 8.1-1.1 10.6l-1.7 3.1-4.5-4.8c-2.4-2.6-7-6-10.1-7.5-4.8-2.4-6.8-2.8-14.1-2.8-6.8 0-9.4.5-13.1 2.3-7.5 3.7-12.5 8.7-16.1 15.9-2.8 5.8-3.3 7.7-3.3 14.3.1 8.5 2.8 15.9 8.4 22.2 3.8 4.4 13.4 9.4 19.7 10.4 2.4.3 4.4.7 4.4.9 0 .1-6.5 11.9-14.5 26.1-8 14.3-14.5 27-14.5 28.3 0 1.4-3.9 9.6-8.6 18.4-4.7 8.8-14.4 27.4-21.6 41.3-7.1 14-13.1 25.4-13.3 25.4-.2 0-4.8-6.4-10.1-14.3-5.4-7.8-13.7-19.6-18.5-26.3-4.7-6.6-8.8-13.3-9.1-15-.2-1.8-12-18.4-33-46.4l-32.6-43.5-.4-8.5c-.4-8-2.4-14.4-8.4-27.7-.7-1.6 25-18.4 40.6-26.6 43.1-22.6 89.5-32.8 130.1-28.6zM101.7 94.7c15.2 7.4 27.6 15.7 34.9 23.5 9.2 9.8 16.4 25.8 16.4 36.4v4l-12.1 8.3c-11.9 8.2-12.2 8.3-15.8 7.2-13.6-4-28.9-23.2-31-38.7-.5-3.2-.6-11.7-.3-18.9.4-13-.1-16.1-4.3-25.8-.4-.9-.4-1.7-.1-1.7.4 0 5.9 2.6 12.3 5.7zm248.1 18.2c4.5 2.3 8.2 6.4 10.1 11 1.3 3 1 3.6-6.4 17-7.4 13.3-7.9 13.9-11.4 14.5-9.1 1.4-18.9-4.1-23.5-13.1-2.3-4.6-2.1-14.4.4-19.2 2.5-4.9 9.1-10.6 13.8-12 5-1.4 12.3-.6 17 1.8zm84.7 16.6c20.5 27.4 34.9 63.6 39.6 99.5 1.6 12 1.6 38.6 0 51-4.8 38.1-19 76.3-42.5 114.8-16.7 27.2-44 61.2-57.2 71.2-24.9 18.8-52.9 19.9-68.1 2.6-2.1-2.4-6.9-9.8-10.8-16.6-3.8-6.7-9.4-14.8-12.3-18-12-13.4-33.7-18.5-50.3-12-10.4 4.1-19.1 11.2-43.7 35.2-31.9 31.4-43.3 39.7-58.9 43.4-16.7 3.9-33.3-2.2-50.8-18.8-13.2-12.4-21.3-24.7-29-43.8-9-22.4-12.5-41.2-13.2-71.5-.8-32.3 2.6-57.7 11.7-89.7 10-34.9 29.2-73.6 49.2-99l4.5-5.7 3.4 2.8c4.9 4 11.7 7.7 16.8 9.2 3.2 1 4.9 2.2 6.7 5.1 1.3 2.1 2.4 4 2.4 4.2 0 .2-2 1.6-4.4 3-22.9 13.4-19.9 49.2 4.9 58.5 8.9 3.4 20 2.7 27.8-1.7 3.1-1.8 5.8-3.2 6-3.2.2 0 4.3 6.5 9.1 14.5 4.8 7.9 9.6 14.7 10.6 15 1 .3 5.8 6.8 10.6 14.3 4.8 7.5 12.3 19 16.5 25.4l7.9 11.7-2.5 5.4c-7.7 16.7-4.6 33.8 8.5 46.7 21 20.6 58.4 19.7 80.1-1.9 8.9-8.9 13-17.4 13.6-28.5.7-10-1.1-17.1-6.3-24.7l-3.6-5.4 19.7-39.5c10.9-21.7 20.5-40 21.5-40.7.9-.6 13.5-26.7 28.1-57.9l26.4-56.6 5.5-3.8c3-2.1 6.6-5 8-6.5l2.5-2.7 3.4 3.9c1.8 2.1 5.7 7 8.6 10.8zm-39.2-4.5c.7.6-46.4 103.3-48.3 105.3-.7.8-25-10.7-25-11.8 0-.3 12.9-23.4 28.6-51.5l28.6-50.9 7.7 4.1c4.2 2.3 8 4.4 8.4 4.8zm-207.9 84.7c15.7 21.1 28.6 38.6 28.6 39.1s-5.9 4.8-13.1 9.6c-10.9 7.4-13.3 8.6-14.3 7.5-1.9-2.1-50.6-82.5-50.6-83.5 0-.5 4.1-3.7 9.2-7.2 7.3-4.9 9.5-5.9 10.4-5 .6.7 14 18.5 29.8 39.5zm-38.9 10.8c5.9 9.6 10.9 18.4 11.2 19.4.4 1.4-.7 2.4-4.8 4.5-21.8 10.8-42.8-15-27.9-34.2 2-2.5 8.6-7.2 10.2-7.2.3 0 5.5 7.9 11.3 17.5zm181 13.7c5.8 2.9 10.5 5.6 10.5 6 0 2.7-49.9 100-51.1 99.6-.4-.2-4.1-5.4-8.2-11.7l-7.5-11.5 7.5-15c7.9-16 37.6-72.6 38-72.6.2 0 5 2.4 10.8 5.2zM232 274.7c15.7 22.1 46.1 67.9 56.9 85.7 10.2 16.9 10.2 16.1 1.3 20.9-4.5 2.4-16 6.3-16.7 5.5-1.8-1.9-28.6-39.2-37.5-52.1-19.4-28.2-39-59.1-38.1-60 .7-.7 22.1-15.4 22.8-15.6.1-.1 5.2 7 11.3 15.6zm77.7 67.2c1 3.5 1.3 7.4 1 10.7-.6 5.9-4.2 14.8-5.6 14-1.3-.8-9.1-14.2-9.1-15.7 0-.6 2.1-5 4.6-9.7 4.4-7.9 4.8-8.4 6.1-6.6.8 1 2.1 4.3 3 7.3zm-75.3 8.5l6.6 9.4-3.5 7.6c-2 4.2-3.8 7.6-4 7.6-1.2 0-6.6-8.8-7.6-12.3-1.4-5.2-1.3-13.8.1-18.2.6-1.9 1.3-3.5 1.5-3.5.2 0 3.3 4.2 6.9 9.4zm20.4 28.1l6.2 8.5h-2.8c-2.6 0-12.8-3-15.1-4.5-.9-.5 3.7-12.5 4.8-12.5.3.1 3.4 3.9 6.9 8.5z"/><path d="M217.9 114.3c-20.6 7.7-28.9 31.3-17.3 48.9 6.7 10 15.9 15 27.9 15.1 12.4.1 23.7-7 29.2-18.1 2.4-5 2.8-6.9 2.8-14.7 0-7.9-.4-9.7-2.8-14.3-3.5-6.7-9-12.2-15.2-15.2-6-2.9-19-3.8-24.6-1.7zm17.5 9.9c8.2 2.5 15.6 12.7 15.6 21.4 0 8.3-5.8 17-13.5 20.5-4.8 2.2-13.3 2.4-17.9.5-9.3-3.9-14.1-12.1-13.4-23 .5-8.5 4-13.8 11.7-17.8 5.9-3.1 10.9-3.5 17.5-1.6zM405.2 186c-10.6 2.2-20.4 10.7-24.3 20.9-2.8 7.5-2.3 18.5 1.1 25.6 3 6.3 9.2 12.4 15.5 15.6 4.2 2 6.4 2.4 14.5 2.4 8 0 10.2-.4 13.8-2.3 15.4-8.2 22.3-25.2 16.8-41.2-2.6-7.5-12-17-19.1-19.3-6.7-2.1-13.1-2.7-18.3-1.7zm18.7 13.3c6.6 4.4 9.5 9.7 9.9 18.1.3 6.6.1 7.5-3 12.6-2.5 4.2-4.5 6.1-8.8 8.3-4.9 2.6-6.2 2.8-11.9 2.4-7.5-.6-12.8-3.8-17.6-10.6-2.7-3.8-3-5.1-3-11.5 0-9.7 3.4-15.7 11.5-19.9 4.8-2.5 6.4-2.8 12.1-2.5 5.1.3 7.5 1 10.8 3.1zM95 292.9c-9.3 3-17.1 9.6-21.1 17.7-2 4.1-2.4 6.4-2.4 14.4 0 8.7.3 10 3 14.8 6.3 11.5 16.8 17.7 30 17.6 23.3-.1 38.7-24.5 29-46-5.3-11.8-15.2-18.5-28.4-19-4.2-.2-8.7 0-10.1.5zm14.9 10.1c5.6 1.6 10.6 5.7 13.6 11.1 2.4 4.4 2.7 5.9 2.3 11.8-.4 8.1-3.5 13.5-10 17.8-3.7 2.5-5.1 2.8-12.3 2.8-7.2 0-8.6-.3-12.3-2.7-11.9-7.9-13.5-24.6-3.3-34.8 6.4-6.3 13.8-8.4 22-6zM393.3 293.8c-16.9 6-25.7 24.6-19.9 42 2.3 6.9 10 15.3 17.4 18.9 6.9 3.4 16.8 3.8 24.9 1 6.6-2.3 14.6-9.4 18.1-16.1 2.3-4.5 2.7-6.3 2.7-14.6 0-11.1-2.1-16.7-8.9-23.5-8.6-8.5-22.9-11.8-34.3-7.7zm18.1 9.4c5.7 1.7 13.1 9.3 14.6 14.9 2.6 9.6-1.3 20.4-9.2 25.7-3.7 2.4-5.1 2.7-12.3 2.7-7.2 0-8.6-.3-12.3-2.8-12.2-8-13.8-24.9-3.3-35.1 6.2-6.1 13.9-7.9 22.5-5.4zM104.9 400.5c-2.6.8-6.8 3-9.5 4.8-20.5 14.2-17.5 45.8 5.4 56.5 4.7 2.2 7.1 2.7 13.7 2.7 9.6 0 15.8-2.5 22.3-8.8 6.7-6.5 9.5-12.7 10-22.4.4-7.5.2-8.7-2.5-14.6-3.7-7.9-8.9-13.2-16.1-16.5-6.8-3.1-16.7-3.8-23.3-1.7zm19.9 11.4c20.9 10.6 13.1 42.4-10.3 42.4-13 0-22.5-9.4-22.5-22.3 0-17.1 17.6-27.8 32.8-20.1z"/></g></svg><svg fill="none" viewBox="0 0 20 20" id="cart" xmlns="http://www.w3.org/2000/svg"><path d="M1.25 2.5h1.458L3.333 5m0 0l2.084 8.333H16.25L18.333 5h-15zM5.417 17.5a1.25 1.25 0 100-2.5 1.25 1.25 0 000 2.5zM16.25 17.5a1.25 1.25 0 100-2.5 1.25 1.25 0 000 2.5z" stroke="#fff" stroke-width="1.5" stroke-linecap="round" stroke-linejoin="round"/></svg><svg viewBox="0 0 512 512" id="cheap" xmlns="http://www.w3.org/2000/svg"><path d="M210 9.57C115.813 22.887 41.201 87.931 16.022 178.67c-5.023 18.101-7.15 32.911-7.748 53.938-.857 30.097 2.502 53.885 11.385 80.632 4.775 14.379 14.989 36.428 22.369 48.291 13.914 22.365 37.708 48.696 57.141 63.233 30.774 23.022 64.217 37.51 102.521 44.413 11.262 2.03 15.952 2.306 38.81 2.286 20.596-.018 28.079-.397 36-1.824 13.08-2.355 26.851-5.842 37.938-9.605 4.915-1.669 9.286-3.034 9.712-3.034.427 0 2.677 2.801 5.002 6.224 11.614 17.102 30.773 30.76 52.56 37.469 8.13 2.503 10.098 2.706 26.288 2.706 16.19 0 18.158-.203 26.288-2.706 32.955-10.148 56.257-33.45 66.405-66.405 2.503-8.13 2.706-10.098 2.706-26.288 0-16.19-.203-18.158-2.706-26.288-6.709-21.787-20.367-40.946-37.469-52.56-3.423-2.325-6.224-4.575-6.224-5.002 0-.426 1.364-4.797 3.032-9.712 8.228-24.254 10.967-40.359 11.637-68.438.608-25.452-.648-38.7-5.638-59.465-10.658-44.36-32.586-82.767-64.973-113.801-34.536-33.095-75.876-53.788-124.558-62.351-12.997-2.286-52.654-2.771-66.5-.813m-.686 16.985c-12.365 1.803-24.574 4.734-37.814 9.076-10.968 3.597-31.5 12.645-31.5 13.881 0 .358 1.64 3.427 3.645 6.82 2.004 3.392 3.654 7.37 3.666 8.839.031 3.683-2.661 7.449-5.907 8.264-4.611 1.157-7.745-1.011-11.901-8.232-2.122-3.686-3.965-6.852-4.095-7.034-.472-.661-5.1 2.281-14.408 9.159-11.36 8.395-30.727 27.091-39.182 37.824-6.554 8.322-13.833 18.733-13.795 19.733.013.338 3.134 2.364 6.936 4.503 7.454 4.192 9.656 7.313 8.476 12.016-.82 3.265-4.575 5.929-8.359 5.929-1.521 0-5.482-1.65-8.802-3.666C52.955 141.65 49.928 140 49.55 140c-1.268 0-10.27 20.373-13.919 31.5-6.208 18.927-10.57 41.435-10.613 54.75L25 232h8.066c9.249 0 11.168.737 12.918 4.962 1.011 2.441 1.011 3.635 0 6.076-1.75 4.225-3.669 4.962-12.918 4.962H25l.018 5.75c.043 13.315 4.405 35.823 10.613 54.75 3.597 10.968 12.645 31.5 13.881 31.5.358 0 3.427-1.646 6.82-3.659 9.071-5.38 15.408-4.498 17.136 2.386 1.146 4.57-1.113 7.726-8.509 11.885-3.802 2.139-6.923 4.165-6.936 4.503-.038 1 7.241 11.411 13.795 19.733 8.455 10.733 27.822 29.429 39.182 37.824 9.308 6.878 13.936 9.82 14.408 9.159.13-.182 1.973-3.348 4.095-7.034 4.122-7.163 7.292-9.389 11.77-8.265 6.884 1.728 7.766 8.065 2.386 17.136-2.013 3.393-3.659 6.424-3.659 6.736 0 1.613 23.118 11.538 36.482 15.661 15.53 4.792 38.348 8.88 49.768 8.917L232 455v-8.066c0-9.249.737-11.168 4.962-12.918 2.441-1.011 3.635-1.011 6.076 0 4.225 1.75 4.962 3.669 4.962 12.918V455h4.776c12.543 0 36-4.308 52.682-9.675 6.073-1.954 11.209-3.706 11.414-3.894.204-.188-.623-4.026-1.838-8.53-1.216-4.505-2.462-11.522-2.77-15.595-.475-6.278-.804-7.306-2.162-6.749-35.652 14.622-79.064 17.561-116.102 7.861C128.795 401.341 78.659 351.205 61.582 286c-7.567-28.894-7.526-63.051.113-92.5C78.346 129.3 129.3 78.346 193.5 61.695c29.449-7.639 63.606-7.68 92.5-.113C351.205 78.659 401.341 128.795 418.418 194c7.284 27.814 7.499 62.688.553 90-1.644 6.465-6.357 21.086-8.414 26.102-.557 1.358.471 1.687 6.749 2.162 4.073.308 11.09 1.554 15.595 2.77 4.504 1.215 8.342 2.042 8.53 1.838.188-.205 1.94-5.341 3.894-11.414 5.367-16.682 9.675-40.139 9.675-52.682V248h-8.066c-9.249 0-11.168-.737-12.918-4.962-1.011-2.441-1.011-3.635 0-6.076 1.75-4.225 3.669-4.962 12.918-4.962H455l-.018-5.75c-.037-11.42-4.125-34.238-8.917-49.768C441.942 163.118 432.017 140 430.404 140c-.312 0-3.336 1.623-6.719 3.606-9.235 5.412-15.42 4.57-17.153-2.333-1.146-4.57 1.113-7.726 8.509-11.885 3.802-2.139 6.923-4.165 6.936-4.503.038-1-7.241-11.411-13.795-19.733C399.727 94.419 380.36 75.723 369 67.328c-9.308-6.878-13.936-9.82-14.408-9.159-.13.182-1.973 3.348-4.095 7.034-4.122 7.163-7.292 9.389-11.77 8.265-6.952-1.745-7.824-7.99-2.391-17.136 2.015-3.393 3.664-6.462 3.664-6.82 0-1.236-20.532-10.284-31.5-13.881-18.927-6.208-41.435-10.57-54.75-10.613L248 25v8.066c0 9.249-.737 11.168-4.962 12.918-2.441 1.011-3.635 1.011-6.076 0-4.225-1.75-4.962-3.669-4.962-12.918V25l-6.75.107c-3.713.06-10.884.711-15.936 1.448M226.5 73.057c-28.696 2.259-59.159 13.225-82.5 29.698-12.189 8.603-32.642 29.056-41.245 41.245-13.281 18.818-23.722 44.181-27.815 67.569-2.895 16.535-2.895 40.327 0 56.862 8.275 47.282 36.648 88.934 78.099 114.656 40.926 25.396 94.424 31.318 140.509 15.553 17.178-5.876 19.229-7.07 20.478-11.924 4.851-18.857 13.333-34.143 25.94-46.75 12.607-12.607 27.893-21.089 46.75-25.94 4.854-1.249 6.048-3.3 11.924-20.478 24.631-72.006-3.457-152.182-68.14-194.498-29.223-19.119-68.051-28.823-104-25.993m7.674 57.257c-1.923 2.048-2.174 3.432-2.174 12V152h-11.895c-14.117 0-21.612 1.918-30.677 7.849-6.857 4.487-9.994 7.687-14.363 14.651-9.406 14.994-9.406 36.006 0 51 4.369 6.964 7.506 10.164 14.363 14.651 9.065 5.931 16.56 7.849 30.677 7.849H232v64l-18.25-.056c-11.425-.036-19.524-.503-21.656-1.25-4.817-1.688-7.099-5.285-7.775-12.253C183.596 290.994 181.21 288 176 288c-5.883 0-8.005 3.076-7.978 11.564.037 11.661 5.303 20.444 15.233 25.406l6.064 3.03H232v9.826c0 8.977.2 10.013 2.314 12 3.172 2.979 8.643 2.913 11.512-.14 1.923-2.048 2.174-3.432 2.174-12V328h11.895c13.565 0 21.277-1.841 29.605-7.065 6.964-4.369 10.164-7.506 14.651-14.363 12.106-18.501 10.012-43.601-5.002-59.958-4.223-4.6-13.961-10.476-20.932-12.629-4.885-1.509-9.282-1.985-18.322-1.985H248v-64l18.25.056c11.425.036 19.524.503 21.656 1.25 4.817 1.688 7.099 5.285 7.775 12.253C296.404 189.006 298.79 192 304 192c5.883 0 8.005-3.076 7.978-11.564-.037-11.783-5.162-20.373-15.124-25.351L290.681 152H248v-9.826c0-8.977-.2-10.013-2.314-12-3.172-2.979-8.643-2.913-11.512.14m-24.042 38.764c-14.891 2.926-25.462 15.765-25.462 30.922 0 8.917 2.819 15.65 9.24 22.064 7.178 7.171 12.087 8.938 26.84 9.662l11.25.553V168l-8.75.11c-4.812.06-10.716.495-13.118.968M248 280v32.279l11.25-.553c14.753-.724 19.662-2.491 26.84-9.662 6.421-6.414 9.24-13.147 9.24-22.064s-2.819-15.65-9.24-22.064c-7.178-7.171-12.087-8.938-26.84-9.662l-11.25-.553V280m149.661 49.109c-29.63 3.907-55.566 25.396-65.044 53.891-14.525 43.667 11.047 90.361 55.883 102.042 11.185 2.914 28.033 2.927 39 .03 28.318-7.482 50.154-29.324 57.554-57.572 2.867-10.945 2.877-27.851.022-39-4.13-16.129-14.481-32.172-27.611-42.795-15.701-12.702-39.419-19.284-59.804-16.596m-18.432 23.56c-3.531 1.421-4.229 5.838-4.229 26.781V400h-9.5c-8.126 0-9.786.286-11.475 1.975-2.822 2.822-3.434 6.342-1.68 9.667.829 1.572 12.699 13.995 26.377 27.608C402.76 463.173 403.723 464 407.525 464c3.811 0 4.749-.816 30.204-26.271C460.769 414.688 464 411.077 464 408.364c0-1.702-.933-4.28-2.073-5.729-1.99-2.53-2.466-2.635-12-2.635H440v-21.826c0-21.521-.032-21.856-2.314-24-2.265-2.127-2.904-2.172-29.75-2.095-15.09.043-28.008.309-28.707.59M392 389.545c0 21.543 0 21.546-2.455 24-1.74 1.741-3.554 2.455-6.236 2.455h-3.782l13.973 14 13.974 14 13.79-13.75c11.711-11.677 13.447-13.792 11.513-14.03-9.643-1.185-10.036-2.323-9.614-27.84l.337-20.381h-15.75L392 368v21.545" fill="#d45658" fill-rule="evenodd"/></svg><svg viewBox="0 0 512 512" id="cheap-white" xmlns="http://www.w3.org/2000/svg"><path d="M210 9.57C115.813 22.887 41.201 87.931 16.022 178.67c-5.023 18.101-7.15 32.911-7.748 53.938-.857 30.097 2.502 53.885 11.385 80.632 4.775 14.379 14.989 36.428 22.369 48.291 13.914 22.365 37.708 48.696 57.141 63.233 30.774 23.022 64.217 37.51 102.521 44.413 11.262 2.03 15.952 2.306 38.81 2.286 20.596-.018 28.079-.397 36-1.824 13.08-2.355 26.851-5.842 37.938-9.605 4.915-1.669 9.286-3.034 9.712-3.034.427 0 2.677 2.801 5.002 6.224 11.614 17.102 30.773 30.76 52.56 37.469 8.13 2.503 10.098 2.706 26.288 2.706 16.19 0 18.158-.203 26.288-2.706 32.955-10.148 56.257-33.45 66.405-66.405 2.503-8.13 2.706-10.098 2.706-26.288 0-16.19-.203-18.158-2.706-26.288-6.709-21.787-20.367-40.946-37.469-52.56-3.423-2.325-6.224-4.575-6.224-5.002 0-.426 1.364-4.797 3.032-9.712 8.228-24.254 10.967-40.359 11.637-68.438.608-25.452-.648-38.7-5.638-59.465-10.658-44.36-32.586-82.767-64.973-113.801-34.536-33.095-75.876-53.788-124.558-62.351-12.997-2.286-52.654-2.771-66.5-.813m-.686 16.985c-12.365 1.803-24.574 4.734-37.814 9.076-10.968 3.597-31.5 12.645-31.5 13.881 0 .358 1.64 3.427 3.645 6.82 2.004 3.392 3.654 7.37 3.666 8.839.031 3.683-2.661 7.449-5.907 8.264-4.611 1.157-7.745-1.011-11.901-8.232-2.122-3.686-3.965-6.852-4.095-7.034-.472-.661-5.1 2.281-14.408 9.159-11.36 8.395-30.727 27.091-39.182 37.824-6.554 8.322-13.833 18.733-13.795 19.733.013.338 3.134 2.364 6.936 4.503 7.454 4.192 9.656 7.313 8.476 12.016-.82 3.265-4.575 5.929-8.359 5.929-1.521 0-5.482-1.65-8.802-3.666C52.955 141.65 49.928 140 49.55 140c-1.268 0-10.27 20.373-13.919 31.5-6.208 18.927-10.57 41.435-10.613 54.75L25 232h8.066c9.249 0 11.168.737 12.918 4.962 1.011 2.441 1.011 3.635 0 6.076-1.75 4.225-3.669 4.962-12.918 4.962H25l.018 5.75c.043 13.315 4.405 35.823 10.613 54.75 3.597 10.968 12.645 31.5 13.881 31.5.358 0 3.427-1.646 6.82-3.659 9.071-5.38 15.408-4.498 17.136 2.386 1.146 4.57-1.113 7.726-8.509 11.885-3.802 2.139-6.923 4.165-6.936 4.503-.038 1 7.241 11.411 13.795 19.733 8.455 10.733 27.822 29.429 39.182 37.824 9.308 6.878 13.936 9.82 14.408 9.159.13-.182 1.973-3.348 4.095-7.034 4.122-7.163 7.292-9.389 11.77-8.265 6.884 1.728 7.766 8.065 2.386 17.136-2.013 3.393-3.659 6.424-3.659 6.736 0 1.613 23.118 11.538 36.482 15.661 15.53 4.792 38.348 8.88 49.768 8.917L232 455v-8.066c0-9.249.737-11.168 4.962-12.918 2.441-1.011 3.635-1.011 6.076 0 4.225 1.75 4.962 3.669 4.962 12.918V455h4.776c12.543 0 36-4.308 52.682-9.675 6.073-1.954 11.209-3.706 11.414-3.894.204-.188-.623-4.026-1.838-8.53-1.216-4.505-2.462-11.522-2.77-15.595-.475-6.278-.804-7.306-2.162-6.749-35.652 14.622-79.064 17.561-116.102 7.861C128.795 401.341 78.659 351.205 61.582 286c-7.567-28.894-7.526-63.051.113-92.5C78.346 129.3 129.3 78.346 193.5 61.695c29.449-7.639 63.606-7.68 92.5-.113C351.205 78.659 401.341 128.795 418.418 194c7.284 27.814 7.499 62.688.553 90-1.644 6.465-6.357 21.086-8.414 26.102-.557 1.358.471 1.687 6.749 2.162 4.073.308 11.09 1.554 15.595 2.77 4.504 1.215 8.342 2.042 8.53 1.838.188-.205 1.94-5.341 3.894-11.414 5.367-16.682 9.675-40.139 9.675-52.682V248h-8.066c-9.249 0-11.168-.737-12.918-4.962-1.011-2.441-1.011-3.635 0-6.076 1.75-4.225 3.669-4.962 12.918-4.962H455l-.018-5.75c-.037-11.42-4.125-34.238-8.917-49.768C441.942 163.118 432.017 140 430.404 140c-.312 0-3.336 1.623-6.719 3.606-9.235 5.412-15.42 4.57-17.153-2.333-1.146-4.57 1.113-7.726 8.509-11.885 3.802-2.139 6.923-4.165 6.936-4.503.038-1-7.241-11.411-13.795-19.733C399.727 94.419 380.36 75.723 369 67.328c-9.308-6.878-13.936-9.82-14.408-9.159-.13.182-1.973 3.348-4.095 7.034-4.122 7.163-7.292 9.389-11.77 8.265-6.952-1.745-7.824-7.99-2.391-17.136 2.015-3.393 3.664-6.462 3.664-6.82 0-1.236-20.532-10.284-31.5-13.881-18.927-6.208-41.435-10.57-54.75-10.613L248 25v8.066c0 9.249-.737 11.168-4.962 12.918-2.441 1.011-3.635 1.011-6.076 0-4.225-1.75-4.962-3.669-4.962-12.918V25l-6.75.107c-3.713.06-10.884.711-15.936 1.448M226.5 73.057c-28.696 2.259-59.159 13.225-82.5 29.698-12.189 8.603-32.642 29.056-41.245 41.245-13.281 18.818-23.722 44.181-27.815 67.569-2.895 16.535-2.895 40.327 0 56.862 8.275 47.282 36.648 88.934 78.099 114.656 40.926 25.396 94.424 31.318 140.509 15.553 17.178-5.876 19.229-7.07 20.478-11.924 4.851-18.857 13.333-34.143 25.94-46.75 12.607-12.607 27.893-21.089 46.75-25.94 4.854-1.249 6.048-3.3 11.924-20.478 24.631-72.006-3.457-152.182-68.14-194.498-29.223-19.119-68.051-28.823-104-25.993m7.674 57.257c-1.923 2.048-2.174 3.432-2.174 12V152h-11.895c-14.117 0-21.612 1.918-30.677 7.849-6.857 4.487-9.994 7.687-14.363 14.651-9.406 14.994-9.406 36.006 0 51 4.369 6.964 7.506 10.164 14.363 14.651 9.065 5.931 16.56 7.849 30.677 7.849H232v64l-18.25-.056c-11.425-.036-19.524-.503-21.656-1.25-4.817-1.688-7.099-5.285-7.775-12.253C183.596 290.994 181.21 288 176 288c-5.883 0-8.005 3.076-7.978 11.564.037 11.661 5.303 20.444 15.233 25.406l6.064 3.03H232v9.826c0 8.977.2 10.013 2.314 12 3.172 2.979 8.643 2.913 11.512-.14 1.923-2.048 2.174-3.432 2.174-12V328h11.895c13.565 0 21.277-1.841 29.605-7.065 6.964-4.369 10.164-7.506 14.651-14.363 12.106-18.501 10.012-43.601-5.002-59.958-4.223-4.6-13.961-10.476-20.932-12.629-4.885-1.509-9.282-1.985-18.322-1.985H248v-64l18.25.056c11.425.036 19.524.503 21.656 1.25 4.817 1.688 7.099 5.285 7.775 12.253C296.404 189.006 298.79 192 304 192c5.883 0 8.005-3.076 7.978-11.564-.037-11.783-5.162-20.373-15.124-25.351L290.681 152H248v-9.826c0-8.977-.2-10.013-2.314-12-3.172-2.979-8.643-2.913-11.512.14m-24.042 38.764c-14.891 2.926-25.462 15.765-25.462 30.922 0 8.917 2.819 15.65 9.24 22.064 7.178 7.171 12.087 8.938 26.84 9.662l11.25.553V168l-8.75.11c-4.812.06-10.716.495-13.118.968M248 280v32.279l11.25-.553c14.753-.724 19.662-2.491 26.84-9.662 6.421-6.414 9.24-13.147 9.24-22.064s-2.819-15.65-9.24-22.064c-7.178-7.171-12.087-8.938-26.84-9.662l-11.25-.553V280m149.661 49.109c-29.63 3.907-55.566 25.396-65.044 53.891-14.525 43.667 11.047 90.361 55.883 102.042 11.185 2.914 28.033 2.927 39 .03 28.318-7.482 50.154-29.324 57.554-57.572 2.867-10.945 2.877-27.851.022-39-4.13-16.129-14.481-32.172-27.611-42.795-15.701-12.702-39.419-19.284-59.804-16.596m-18.432 23.56c-3.531 1.421-4.229 5.838-4.229 26.781V400h-9.5c-8.126 0-9.786.286-11.475 1.975-2.822 2.822-3.434 6.342-1.68 9.667.829 1.572 12.699 13.995 26.377 27.608C402.76 463.173 403.723 464 407.525 464c3.811 0 4.749-.816 30.204-26.271C460.769 414.688 464 411.077 464 408.364c0-1.702-.933-4.28-2.073-5.729-1.99-2.53-2.466-2.635-12-2.635H440v-21.826c0-21.521-.032-21.856-2.314-24-2.265-2.127-2.904-2.172-29.75-2.095-15.09.043-28.008.309-28.707.59M392 389.545c0 21.543 0 21.546-2.455 24-1.74 1.741-3.554 2.455-6.236 2.455h-3.782l13.973 14 13.974 14 13.79-13.75c11.711-11.677 13.447-13.792 11.513-14.03-9.643-1.185-10.036-2.323-9.614-27.84l.337-20.381h-15.75L392 368v21.545" fill="#fff" fill-rule="evenodd"/></svg><svg fill="none" viewBox="0 0 16 16" id="close" xmlns="http://www.w3.org/2000/svg"><g clip-path="url(#agclip0_196_1122)" stroke="#3C5185" stroke-linecap="round" stroke-linejoin="round"><path d="M2.667 2.667l10.4 10.4M2.667 13.067l10.4-10.4"/></g><defs><clipPath id="agclip0_196_1122"><path fill="#fff" d="M0 0h16v16H0z"/></clipPath></defs></svg><svg fill="none" viewBox="0 0 16 16" id="close-gray" xmlns="http://www.w3.org/2000/svg"><g clip-path="url(#ahclip0_196_1122)" stroke="#C2C6CD" stroke-linecap="round" stroke-linejoin="round"><path d="M2.667 2.667l10.4 10.4M2.667 13.067l10.4-10.4"/></g><defs><clipPath id="ahclip0_196_1122"><path fill="#fff" d="M0 0h16v16H0z"/></clipPath></defs></svg><svg fill="none" viewBox="0 0 16 16" id="close-white" xmlns="http://www.w3.org/2000/svg"><g clip-path="url(#aiclip0_196_1122)" stroke="#fff" stroke-linecap="round" stroke-linejoin="round"><path d="M2.667 2.667l10.4 10.4M2.667 13.067l10.4-10.4"/></g><defs><clipPath id="aiclip0_196_1122"><path fill="#fff" d="M0 0h16v16H0z"/></clipPath></defs></svg><svg shape-rendering="geometricPrecision" text-rendering="geometricPrecision" image-rendering="optimizeQuality" fill-rule="evenodd" clip-rule="evenodd" viewBox="0 0 512 512" id="delivery" xmlns="http://www.w3.org/2000/svg"><path fill="#fff" d="M233.5 15.5c42.566-3.295 83.233 3.872 122 21.5a249.61 249.61 0 01-6.5 13.5 3.942 3.942 0 01-2 1C273.034 21.077 201.867 26.577 133.5 68c-64.783 45.212-98.783 107.545-102 187 .422 26.441 5.088 52.108 14 77-4.483 2.726-9.316 4.893-14.5 6.5-2.755-4.239-4.755-8.906-6-14-23.055-89.105-4.055-167.772 57-236 41.814-42.156 92.314-66.49 151.5-73z" opacity=".939"/><path fill="#fff" d="M401.5 15.5c3.478-.316 6.812.184 10 1.5 6.261 4.908 10.928 10.908 14 18a174.937 174.937 0 01-5 14 2014.632 2014.632 0 0038 37.5 383.338 383.338 0 003.5-38c-1.101-1.894-2.434-2.56-4-2a143.618 143.618 0 01-7.5 20 102.097 102.097 0 01-15-6 2145.899 2145.899 0 0111.5-35c2.474-3.819 5.974-5.319 10.5-4.5A282.227 282.227 0 01478 40.5a16.079 16.079 0 011.5 7c-1.894 19-3.394 38-4.5 57 15.11 13.659 21.777 30.659 20 51l-3.5 3.5c-15.604 1.599-29.604-2.401-42-12a56.975 56.975 0 00-9.5-8.5 10289.805 10289.805 0 01-58.5 4.5 308.617 308.617 0 01-21.5-20.5c-1.151-4.329-.318-8.162 2.5-11.5a2548.326 2548.326 0 0038-13.5 1608.557 1608.557 0 00-33.5-34c-2.753-3.834-3.086-7.834-1-12a1802.493 1802.493 0 0035.5-36zm3 21c.997-.03 1.664.47 2 1.5a146.123 146.123 0 00-4 13 18.09 18.09 0 002.5 6.5l64 65c4.281 5.674 7.115 12.007 8.5 19-6.634-1.483-12.634-4.317-18-8.5A3766.527 3766.527 0 00387 59.5c-.982-1.259-1.315-2.592-1-4a495.08 495.08 0 0018.5-19zm7 75a4.934 4.934 0 013 .5l10 10a236.401 236.401 0 01-38 3l-3-3a459.327 459.327 0 0028-10.5z" opacity=".942"/><path fill="#fff" d="M235.5 55.5c46.768-3.891 89.768 6.776 129 32a200.03 200.03 0 01-9.5 14c-20.584-13.307-42.917-22.307-67-27l-1 33a356.018 356.018 0 01-27.5 35.5 400.05 400.05 0 01-40 0l-3.5-3.5a647.854 647.854 0 01-.5-36c-9.339.166-18.673 0-28-.5a65.933 65.933 0 01-10-13.5c-19.773 9.55-37.44 22.051-53 37.5l15 1 3.5 3.5 1 40 14.5 14.5c.667.667 1.333.667 2 0a241.166 241.166 0 0119-18 400.05 400.05 0 0140 0c.916.374 1.75.874 2.5 1.5l25 50c1.443 4.712.277 8.545-3.5 11.5l-24 1a1130.205 1130.205 0 01-35.5 42.5c-.5 6.992-.666 13.992-.5 21 9.339-.166 18.673 0 28 .5 9.833 8.5 19 17.667 27.5 27.5.984 30.086.651 60.086-1 90-4.052 2.442-8.219 2.609-12.5.5a637.957 637.957 0 01-33.5-26.5l-1-23a225.929 225.929 0 01-23-17l-1-39a6029.444 6029.444 0 00-64.5-35.5 25.558 25.558 0 01-6.5-5.5c-.5-14.663-.667-29.33-.5-44h-21c-7.453 47.238 1.547 91.072 27 131.5a200.03 200.03 0 01-14 9.5c-32.966-52.715-40.8-109.049-23.5-169a132.812 132.812 0 0110-24 61.226 61.226 0 0114.5 8 164.044 164.044 0 00-10 27 422.88 422.88 0 0029 1.5l3.5 3.5 1 47a2718.02 2718.02 0 0054.5 30 323.11 323.11 0 012.5-23l40.5-48.5a178.336 178.336 0 0116-2.5l-15-30a88.739 88.739 0 00-23-.5 389.69 389.69 0 01-24 23c-4.033 1.04-7.699.374-11-2a441.019 441.019 0 01-24.5-25.5 647.854 647.854 0 01-.5-36 81.883 81.883 0 00-18 1 9516.63 9516.63 0 01-13.5 19 105.117 105.117 0 01-14.5-8.5c35.429-57.561 86.762-90.728 154-99.5zm18 16a102.049 102.049 0 0018 1c.166 9.34 0 18.673-.5 28a738.21 738.21 0 00-19.5 26c-6.634.997-13.3 1.33-20 1 .167-12.005 0-24.005-.5-36l-3.5-3.5-31-1a13.923 13.923 0 00-3-4c19.531-6.974 39.531-10.808 60-11.5zm-70 240c6.675-.166 13.342 0 20 .5l19.5 19.5a870.065 870.065 0 010 59 365.94 365.94 0 01-14.5-11 4156.845 4156.845 0 01-2-25 842.34 842.34 0 00-22.5-16c-.5-8.994-.666-17.994-.5-27z" opacity=".956"/><path fill="#fff" d="M336.5 105.5c4.919 3.248 9.253 7.248 13 12a2961.86 2961.86 0 01-45.5 46c-.5 6.658-.666 13.325-.5 20 17.337-.167 34.67 0 52 .5a446.03 446.03 0 0135.5 35.5c.5 6.658.666 13.325.5 20h47c-2.811-30.27-12.478-58.103-29-83.5l13-9c.832-.688 1.498-.521 2 .5 34.867 57.782 40.7 118.449 17.5 182-30.479 69.798-83.313 111.298-158.5 124.5-50.477 6.775-96.811-3.892-139-32a101.12 101.12 0 0110-13.5c51.544 32.443 106.211 38.943 164 19.5 63.74-25.745 102.907-72.245 117.5-139.5a360.287 360.287 0 003.5-32.5c-15.997-.5-31.997-.667-48-.5.167 22.669 0 45.336-.5 68a683.13 683.13 0 01-35.5 51.5 400.05 400.05 0 01-40 0l-3.5-3.5c-.5-19.997-.667-39.997-.5-60-12.005.167-24.005 0-36-.5l-3.5-3.5c-.667-16-.667-32 0-48a463.29 463.29 0 0127.5-43.5 400.05 400.05 0 0140 0 389.69 389.69 0 0124 23c3.986.499 7.986.666 12 .5a72.367 72.367 0 00-.5-12L347.5 200l-56-1-3.5-3.5a400.05 400.05 0 010-40 3436.866 3436.866 0 0148.5-50zm-28 126c7.674-.166 15.341 0 23 .5a389.69 389.69 0 0024 23c6.658.5 13.325.666 20 .5.167 20.336 0 40.669-.5 61a2887.1 2887.1 0 01-28.5 42.5c-6.325.5-12.658.666-19 .5.167-20.003 0-40.003-.5-60l-3.5-3.5a647.854 647.854 0 00-36-.5c-.166-10.006 0-20.006.5-30a886.7 886.7 0 0020.5-34z" opacity=".956"/><path fill="#fff" d="M478.5 172.5c1.175-.219 2.175.114 3 1 16.949 49.842 18.449 100.175 4.5 151a205.813 205.813 0 01-12 31 249.25 249.25 0 01-13.5-6.5 3.943 3.943 0 01-1-2c20.571-47.742 24.738-96.909 12.5-147.5a365.986 365.986 0 00-6.5-20.5 111.631 111.631 0 0113-6.5z" opacity=".936"/><path fill="#fff" d="M19.5 351.5c19.983-1.173 36.65 5.661 50 20.5a1665.1 1665.1 0 0060-4 309.906 309.906 0 0121.5 20.5c1.151 4.329.318 8.162-2.5 11.5a991.047 991.047 0 01-33.5 11.5c-.945-.405-1.612-1.072-2-2a139.319 139.319 0 00-4.5-12.5c.405-.945 1.072-1.612 2-2a256.918 256.918 0 0017-6l-3-3c-12.733-.024-25.4.976-38 3a2376.209 2376.209 0 0057.5 58.5c2.753 3.833 3.086 7.833 1 12L109.5 495c-3.464.817-6.798.483-10-1-6.261-4.908-10.928-10.908-14-18a174.948 174.948 0 015-14 268.704 268.704 0 01-14-13.5 2407.05 2407.05 0 00-12.5 37c-3.17 4.832-7.336 5.999-12.5 3.5L33 470.5a16.07 16.07 0 01-1.5-7c1.894-19 3.394-38 4.5-57-15.11-13.659-21.777-30.659-20-51 .69-1.85 1.856-3.184 3.5-4zm14 18c6.633 1.483 12.633 4.317 18 8.5a3866.387 3866.387 0 0073.5 74.5c.667 1 .667 2 0 3L106.5 474c-.983.591-1.65.257-2-1a146.153 146.153 0 004-13 18.091 18.091 0 00-2.5-6.5 2937.247 2937.247 0 01-64-65c-4.464-5.595-7.297-11.929-8.5-19zm18 55c4.447 2.613 8.114 6.113 11 10.5A274.074 274.074 0 0152 465.5c-1.786-1.277-2.952-2.944-3.5-5a450.576 450.576 0 003-36z" opacity=".943"/><path fill="#fff" d="M450.5 363.5a169.706 169.706 0 0116 7.5c-40.284 70.012-100.618 111.012-181 123-45.267 5.629-88.6-1.038-130-20a249.25 249.25 0 016.5-13.5 3.943 3.943 0 012-1c69.49 28.834 137.323 25.334 203.5-10.5 35.412-20.999 63.079-49.499 83-85.5z" opacity=".936"/></svg><svg viewBox="0 0 512 512" id="expensive" xmlns="http://www.w3.org/2000/svg"><path d="M389.113 9.486c-25.227 5.704-46.991 19.951-59.983 39.264-2.313 3.438-4.549 6.25-4.971 6.25-.421 0-5.257-1.513-10.747-3.361C289.29 43.515 267.117 40 240 40c-20.343 0-35.788 1.724-53.5 5.971C98.408 67.097 31.15 136.166 12.652 224.5 9.171 241.126 8 253.182 8 272.409c0 63.844 25.397 123.374 71.385 167.329 33.738 32.246 75.386 53.168 122.115 61.345 15.284 2.674 45.601 3.664 61.608 2.01 26.8-2.769 53.949-10.469 77.558-21.999 25.221-12.317 44.214-25.866 63.85-45.548 34.347-34.427 55.775-75.929 64.661-125.236 2.03-11.262 2.306-15.952 2.286-38.81-.018-20.596-.397-28.079-1.824-36-2.355-13.08-5.842-26.851-9.605-37.938-1.669-4.915-3.034-9.286-3.034-9.712 0-.427 2.801-2.677 6.224-5.002 17.102-11.614 30.76-30.773 37.469-52.56 2.503-8.13 2.706-10.098 2.706-26.288 0-16.255-.196-18.136-2.749-26.436-8.422-27.379-25.707-47.912-50.699-60.224-12.793-6.302-22.742-8.559-39.451-8.948-10.592-.247-16.877.074-21.387 1.094m8.548 15.623c-29.63 3.907-55.566 25.396-65.044 53.891-14.525 43.667 11.047 90.361 55.883 102.042 11.185 2.914 28.033 2.927 39 .03 28.318-7.482 50.154-29.324 57.554-57.572 2.886-11.018 2.881-27.888-.013-39-8.79-33.759-37.572-57.473-72.541-59.768-4.4-.289-11.078-.119-14.839.377M378.722 72.75c-13.678 13.613-25.548 26.036-26.377 27.608-1.754 3.325-1.142 6.845 1.68 9.667 1.689 1.689 3.349 1.975 11.475 1.975h9.5v20.55c0 21.393.669 25.341 4.545 26.829.89.341 13.878.621 28.862.621 27.185 0 27.249-.005 29.419-2.314 2.094-2.23 2.174-3.112 2.174-24V112h9.545c8.802 0 9.737-.191 12-2.455 1.607-1.606 2.455-3.585 2.455-5.729 0-2.949-2.607-5.881-26.271-29.545C412.274 48.816 411.336 48 407.525 48c-3.802 0-4.765.827-28.803 24.75M209.314 58.555c-12.365 1.803-24.574 4.734-37.814 9.076-10.968 3.597-31.5 12.645-31.5 13.881 0 .358 1.64 3.427 3.645 6.82 2.004 3.392 3.654 7.37 3.666 8.839.031 3.683-2.661 7.449-5.907 8.264-4.611 1.157-7.745-1.011-11.901-8.232-2.122-3.686-3.965-6.852-4.095-7.034-.472-.661-5.1 2.281-14.408 9.159-11.36 8.395-30.727 27.091-39.182 37.824-6.554 8.322-13.833 18.733-13.795 19.733.013.338 3.134 2.364 6.936 4.503 7.454 4.192 9.656 7.313 8.476 12.016-.82 3.265-4.575 5.929-8.359 5.929-1.521 0-5.482-1.65-8.802-3.666C52.955 173.65 49.928 172 49.55 172c-1.268 0-10.27 20.373-13.919 31.5-6.208 18.927-10.57 41.435-10.613 54.75L25 264h8.066c9.249 0 11.168.737 12.918 4.962 1.011 2.441 1.011 3.635 0 6.076-1.75 4.225-3.669 4.962-12.918 4.962H25l.018 5.75c.043 13.315 4.405 35.823 10.613 54.75 3.597 10.968 12.645 31.5 13.881 31.5.358 0 3.427-1.646 6.82-3.659 9.071-5.38 15.408-4.498 17.136 2.386 1.146 4.57-1.113 7.726-8.509 11.885-3.802 2.139-6.923 4.165-6.936 4.503-.038 1 7.241 11.411 13.795 19.733 8.455 10.733 27.822 29.429 39.182 37.824 9.308 6.878 13.936 9.82 14.408 9.159.13-.182 1.973-3.348 4.095-7.034 4.122-7.163 7.292-9.389 11.77-8.265 6.884 1.728 7.766 8.065 2.386 17.136-2.013 3.393-3.659 6.462-3.659 6.82 0 1.236 20.532 10.284 31.5 13.881 18.927 6.208 41.435 10.57 54.75 10.613L232 487v-8.066c0-9.249.737-11.168 4.962-12.918 2.441-1.011 3.635-1.011 6.076 0 4.225 1.75 4.962 3.669 4.962 12.918V487l5.75-.018c13.315-.043 35.823-4.405 54.75-10.613 11.127-3.649 31.5-12.651 31.5-13.919 0-.378-1.665-3.429-3.7-6.779-5.473-9.009-4.57-15.382 2.427-17.139 4.478-1.124 7.648 1.102 11.77 8.265 2.122 3.686 3.965 6.852 4.095 7.034.471.659 5.088-2.273 14.214-9.024 11.415-8.446 30.957-27.272 39.285-37.844 6.632-8.42 13.924-18.842 13.886-19.848-.013-.338-3.134-2.364-6.936-4.503-7.396-4.159-9.655-7.315-8.509-11.885 1.745-6.952 7.99-7.824 17.136-2.391 3.393 2.015 6.462 3.664 6.82 3.664 1.236 0 10.284-20.532 13.881-31.5 6.208-18.927 10.57-41.435 10.613-54.75L455 280h-7.918c-4.355 0-8.647-.28-9.537-.621-2.562-.983-4.758-6.134-4.029-9.451 1.024-4.664 3.841-5.928 13.207-5.928H455v-4.776c0-12.543-4.308-36-9.675-52.682-1.954-6.073-3.706-11.209-3.894-11.414-.188-.204-4.026.623-8.53 1.838-4.505 1.216-11.522 2.462-15.595 2.77-6.278.475-7.306.804-6.749 2.162C419.415 223.497 424 247.405 424 272c0 70.098-38.204 132.298-101 164.437C297.455 449.511 269.923 456 240 456c-51.341 0-98.583-20.265-133.683-57.346C73.41 363.889 56 320.067 56 272c0-48.185 17.329-91.804 50.317-126.654C141.489 108.189 188.554 88 240 88c24.595 0 48.503 4.585 70.102 13.443 1.358.557 1.687-.471 2.162-6.749.308-4.073 1.554-11.09 2.77-15.595 1.215-4.504 2.042-8.332 1.838-8.508-1-.856-20.416-6.794-28.236-8.634-10.476-2.465-27.997-4.91-35.386-4.937L248 57v8.066c0 9.249-.737 11.168-4.962 12.918-2.441 1.011-3.635 1.011-6.076 0-4.225-1.75-4.962-3.669-4.962-12.918V57l-6.75.107c-3.713.06-10.884.711-15.936 1.448M393.5 82l-13.973 14h3.782c2.682 0 4.496.714 6.236 2.455 2.455 2.454 2.455 2.457 2.455 24V144l15.75.001h15.75l-.337-20.381c-.422-25.517-.029-26.655 9.614-27.84 1.934-.238.198-2.353-11.513-14.03L407.474 68 393.5 82m-167 23.064c-28.647 2.234-59.151 13.212-82.5 29.691-12.189 8.603-32.642 29.056-41.245 41.245-13.281 18.818-23.722 44.181-27.815 67.569-2.869 16.389-2.892 40.343-.055 56.542 5.975 34.117 21.213 63.851 45.475 88.739 32.098 32.926 73.421 50.299 119.64 50.299 38.494 0 72.618-11.632 102.516-34.944 56.487-44.045 79.052-118.726 56.124-185.753-5.876-17.178-7.07-19.229-11.924-20.478-18.857-4.851-34.143-13.333-46.75-25.94-12.607-12.607-21.089-27.893-25.94-46.75-.945-3.674-1.692-4.493-5.805-6.368-7.945-3.622-23.571-8.666-33.526-10.823-7.848-1.7-33.67-4.441-37.195-3.948-.55.077-5.5.491-11 .919m7.674 57.25c-1.923 2.048-2.174 3.432-2.174 12V184h-11.895c-9.04 0-13.437.476-18.322 1.985-6.971 2.153-16.709 8.029-20.932 12.629-20.235 22.044-16.102 57.633 8.543 73.562 9.16 5.921 16.631 7.824 30.711 7.824H232v64l-18.25-.056c-11.425-.036-19.524-.503-21.656-1.25-4.817-1.688-7.099-5.285-7.775-12.253C183.596 322.994 181.21 320 176 320c-5.883 0-8.005 3.076-7.978 11.564.037 11.661 5.303 20.444 15.233 25.406l6.064 3.03H232v9.826c0 8.977.2 10.013 2.314 12 3.172 2.979 8.643 2.913 11.512-.14 1.923-2.048 2.174-3.432 2.174-12V360h11.895c13.565 0 21.277-1.841 29.605-7.065 6.964-4.369 10.164-7.506 14.651-14.363 12.106-18.501 10.012-43.601-5.002-59.958-4.223-4.6-13.961-10.476-20.932-12.629-4.885-1.509-9.282-1.985-18.322-1.985H248v-64l18.25.056c11.425.036 19.524.503 21.656 1.25 4.817 1.688 7.099 5.285 7.775 12.253C296.404 221.006 298.79 224 304 224c5.883 0 8.005-3.076 7.978-11.564-.037-11.783-5.162-20.373-15.124-25.351L290.681 184H248v-9.826c0-8.977-.2-10.013-2.314-12-3.172-2.979-8.643-2.913-11.512.14m-24.042 38.764c-14.891 2.926-25.462 15.765-25.462 30.922 0 8.917 2.819 15.65 9.24 22.064 7.178 7.171 12.087 8.938 26.84 9.662l11.25.553V200l-8.75.11c-4.812.06-10.716.495-13.118.968M248 312v32.279l11.25-.553c14.753-.724 19.662-2.491 26.84-9.662 6.421-6.414 9.24-13.147 9.24-22.064s-2.819-15.65-9.24-22.064c-7.178-7.171-12.087-8.938-26.84-9.662l-11.25-.553V312" fill="#d45658" fill-rule="evenodd"/></svg><svg viewBox="0 0 512 512" id="expensive-white" xmlns="http://www.w3.org/2000/svg"><path d="M389.113 9.486c-25.227 5.704-46.991 19.951-59.983 39.264-2.313 3.438-4.549 6.25-4.971 6.25-.421 0-5.257-1.513-10.747-3.361C289.29 43.515 267.117 40 240 40c-20.343 0-35.788 1.724-53.5 5.971C98.408 67.097 31.15 136.166 12.652 224.5 9.171 241.126 8 253.182 8 272.409c0 63.844 25.397 123.374 71.385 167.329 33.738 32.246 75.386 53.168 122.115 61.345 15.284 2.674 45.601 3.664 61.608 2.01 26.8-2.769 53.949-10.469 77.558-21.999 25.221-12.317 44.214-25.866 63.85-45.548 34.347-34.427 55.775-75.929 64.661-125.236 2.03-11.262 2.306-15.952 2.286-38.81-.018-20.596-.397-28.079-1.824-36-2.355-13.08-5.842-26.851-9.605-37.938-1.669-4.915-3.034-9.286-3.034-9.712 0-.427 2.801-2.677 6.224-5.002 17.102-11.614 30.76-30.773 37.469-52.56 2.503-8.13 2.706-10.098 2.706-26.288 0-16.255-.196-18.136-2.749-26.436-8.422-27.379-25.707-47.912-50.699-60.224-12.793-6.302-22.742-8.559-39.451-8.948-10.592-.247-16.877.074-21.387 1.094m8.548 15.623c-29.63 3.907-55.566 25.396-65.044 53.891-14.525 43.667 11.047 90.361 55.883 102.042 11.185 2.914 28.033 2.927 39 .03 28.318-7.482 50.154-29.324 57.554-57.572 2.886-11.018 2.881-27.888-.013-39-8.79-33.759-37.572-57.473-72.541-59.768-4.4-.289-11.078-.119-14.839.377M378.722 72.75c-13.678 13.613-25.548 26.036-26.377 27.608-1.754 3.325-1.142 6.845 1.68 9.667 1.689 1.689 3.349 1.975 11.475 1.975h9.5v20.55c0 21.393.669 25.341 4.545 26.829.89.341 13.878.621 28.862.621 27.185 0 27.249-.005 29.419-2.314 2.094-2.23 2.174-3.112 2.174-24V112h9.545c8.802 0 9.737-.191 12-2.455 1.607-1.606 2.455-3.585 2.455-5.729 0-2.949-2.607-5.881-26.271-29.545C412.274 48.816 411.336 48 407.525 48c-3.802 0-4.765.827-28.803 24.75M209.314 58.555c-12.365 1.803-24.574 4.734-37.814 9.076-10.968 3.597-31.5 12.645-31.5 13.881 0 .358 1.64 3.427 3.645 6.82 2.004 3.392 3.654 7.37 3.666 8.839.031 3.683-2.661 7.449-5.907 8.264-4.611 1.157-7.745-1.011-11.901-8.232-2.122-3.686-3.965-6.852-4.095-7.034-.472-.661-5.1 2.281-14.408 9.159-11.36 8.395-30.727 27.091-39.182 37.824-6.554 8.322-13.833 18.733-13.795 19.733.013.338 3.134 2.364 6.936 4.503 7.454 4.192 9.656 7.313 8.476 12.016-.82 3.265-4.575 5.929-8.359 5.929-1.521 0-5.482-1.65-8.802-3.666C52.955 173.65 49.928 172 49.55 172c-1.268 0-10.27 20.373-13.919 31.5-6.208 18.927-10.57 41.435-10.613 54.75L25 264h8.066c9.249 0 11.168.737 12.918 4.962 1.011 2.441 1.011 3.635 0 6.076-1.75 4.225-3.669 4.962-12.918 4.962H25l.018 5.75c.043 13.315 4.405 35.823 10.613 54.75 3.597 10.968 12.645 31.5 13.881 31.5.358 0 3.427-1.646 6.82-3.659 9.071-5.38 15.408-4.498 17.136 2.386 1.146 4.57-1.113 7.726-8.509 11.885-3.802 2.139-6.923 4.165-6.936 4.503-.038 1 7.241 11.411 13.795 19.733 8.455 10.733 27.822 29.429 39.182 37.824 9.308 6.878 13.936 9.82 14.408 9.159.13-.182 1.973-3.348 4.095-7.034 4.122-7.163 7.292-9.389 11.77-8.265 6.884 1.728 7.766 8.065 2.386 17.136-2.013 3.393-3.659 6.462-3.659 6.82 0 1.236 20.532 10.284 31.5 13.881 18.927 6.208 41.435 10.57 54.75 10.613L232 487v-8.066c0-9.249.737-11.168 4.962-12.918 2.441-1.011 3.635-1.011 6.076 0 4.225 1.75 4.962 3.669 4.962 12.918V487l5.75-.018c13.315-.043 35.823-4.405 54.75-10.613 11.127-3.649 31.5-12.651 31.5-13.919 0-.378-1.665-3.429-3.7-6.779-5.473-9.009-4.57-15.382 2.427-17.139 4.478-1.124 7.648 1.102 11.77 8.265 2.122 3.686 3.965 6.852 4.095 7.034.471.659 5.088-2.273 14.214-9.024 11.415-8.446 30.957-27.272 39.285-37.844 6.632-8.42 13.924-18.842 13.886-19.848-.013-.338-3.134-2.364-6.936-4.503-7.396-4.159-9.655-7.315-8.509-11.885 1.745-6.952 7.99-7.824 17.136-2.391 3.393 2.015 6.462 3.664 6.82 3.664 1.236 0 10.284-20.532 13.881-31.5 6.208-18.927 10.57-41.435 10.613-54.75L455 280h-7.918c-4.355 0-8.647-.28-9.537-.621-2.562-.983-4.758-6.134-4.029-9.451 1.024-4.664 3.841-5.928 13.207-5.928H455v-4.776c0-12.543-4.308-36-9.675-52.682-1.954-6.073-3.706-11.209-3.894-11.414-.188-.204-4.026.623-8.53 1.838-4.505 1.216-11.522 2.462-15.595 2.77-6.278.475-7.306.804-6.749 2.162C419.415 223.497 424 247.405 424 272c0 70.098-38.204 132.298-101 164.437C297.455 449.511 269.923 456 240 456c-51.341 0-98.583-20.265-133.683-57.346C73.41 363.889 56 320.067 56 272c0-48.185 17.329-91.804 50.317-126.654C141.489 108.189 188.554 88 240 88c24.595 0 48.503 4.585 70.102 13.443 1.358.557 1.687-.471 2.162-6.749.308-4.073 1.554-11.09 2.77-15.595 1.215-4.504 2.042-8.332 1.838-8.508-1-.856-20.416-6.794-28.236-8.634-10.476-2.465-27.997-4.91-35.386-4.937L248 57v8.066c0 9.249-.737 11.168-4.962 12.918-2.441 1.011-3.635 1.011-6.076 0-4.225-1.75-4.962-3.669-4.962-12.918V57l-6.75.107c-3.713.06-10.884.711-15.936 1.448M393.5 82l-13.973 14h3.782c2.682 0 4.496.714 6.236 2.455 2.455 2.454 2.455 2.457 2.455 24V144l15.75.001h15.75l-.337-20.381c-.422-25.517-.029-26.655 9.614-27.84 1.934-.238.198-2.353-11.513-14.03L407.474 68 393.5 82m-167 23.064c-28.647 2.234-59.151 13.212-82.5 29.691-12.189 8.603-32.642 29.056-41.245 41.245-13.281 18.818-23.722 44.181-27.815 67.569-2.869 16.389-2.892 40.343-.055 56.542 5.975 34.117 21.213 63.851 45.475 88.739 32.098 32.926 73.421 50.299 119.64 50.299 38.494 0 72.618-11.632 102.516-34.944 56.487-44.045 79.052-118.726 56.124-185.753-5.876-17.178-7.07-19.229-11.924-20.478-18.857-4.851-34.143-13.333-46.75-25.94-12.607-12.607-21.089-27.893-25.94-46.75-.945-3.674-1.692-4.493-5.805-6.368-7.945-3.622-23.571-8.666-33.526-10.823-7.848-1.7-33.67-4.441-37.195-3.948-.55.077-5.5.491-11 .919m7.674 57.25c-1.923 2.048-2.174 3.432-2.174 12V184h-11.895c-9.04 0-13.437.476-18.322 1.985-6.971 2.153-16.709 8.029-20.932 12.629-20.235 22.044-16.102 57.633 8.543 73.562 9.16 5.921 16.631 7.824 30.711 7.824H232v64l-18.25-.056c-11.425-.036-19.524-.503-21.656-1.25-4.817-1.688-7.099-5.285-7.775-12.253C183.596 322.994 181.21 320 176 320c-5.883 0-8.005 3.076-7.978 11.564.037 11.661 5.303 20.444 15.233 25.406l6.064 3.03H232v9.826c0 8.977.2 10.013 2.314 12 3.172 2.979 8.643 2.913 11.512-.14 1.923-2.048 2.174-3.432 2.174-12V360h11.895c13.565 0 21.277-1.841 29.605-7.065 6.964-4.369 10.164-7.506 14.651-14.363 12.106-18.501 10.012-43.601-5.002-59.958-4.223-4.6-13.961-10.476-20.932-12.629-4.885-1.509-9.282-1.985-18.322-1.985H248v-64l18.25.056c11.425.036 19.524.503 21.656 1.25 4.817 1.688 7.099 5.285 7.775 12.253C296.404 221.006 298.79 224 304 224c5.883 0 8.005-3.076 7.978-11.564-.037-11.783-5.162-20.373-15.124-25.351L290.681 184H248v-9.826c0-8.977-.2-10.013-2.314-12-3.172-2.979-8.643-2.913-11.512.14m-24.042 38.764c-14.891 2.926-25.462 15.765-25.462 30.922 0 8.917 2.819 15.65 9.24 22.064 7.178 7.171 12.087 8.938 26.84 9.662l11.25.553V200l-8.75.11c-4.812.06-10.716.495-13.118.968M248 312v32.279l11.25-.553c14.753-.724 19.662-2.491 26.84-9.662 6.421-6.414 9.24-13.147 9.24-22.064s-2.819-15.65-9.24-22.064c-7.178-7.171-12.087-8.938-26.84-9.662l-11.25-.553V312" fill="#fff" fill-rule="evenodd"/></svg><svg fill="none" viewBox="0 0 20 20" id="eye" xmlns="http://www.w3.org/2000/svg"><path d="M10 13.608A3.61 3.61 0 016.392 10 3.61 3.61 0 0110 6.392 3.61 3.61 0 0113.608 10 3.61 3.61 0 0110 13.608zm0-5.966A2.361 2.361 0 007.642 10c0 1.3 1.058 2.358 2.358 2.358S12.358 11.3 12.358 10 11.3 7.642 10 7.642z" fill="#C2C6CD"/><path d="M10 17.517c-3.133 0-6.092-1.834-8.125-5.017-.883-1.375-.883-3.617 0-5 2.042-3.183 5-5.017 8.125-5.017s6.083 1.834 8.117 5.017c.883 1.375.883 3.617 0 5-2.034 3.183-4.992 5.017-8.117 5.017zm0-13.784c-2.692 0-5.267 1.617-7.067 4.442-.625.975-.625 2.675 0 3.65 1.8 2.825 4.375 4.442 7.067 4.442s5.267-1.617 7.067-4.442c.625-.975.625-2.675 0-3.65-1.8-2.825-4.375-4.442-7.067-4.442z" fill="#C2C6CD"/></svg><svg fill="none" viewBox="0 0 20 20" id="eye-not" xmlns="http://www.w3.org/2000/svg"><path d="M7.892 12.733a.618.618 0 01-.442-.183A3.588 3.588 0 016.392 10 3.61 3.61 0 0110 6.392c.958 0 1.867.375 2.55 1.058a.624.624 0 010 .883L8.333 12.55a.618.618 0 01-.441.183zM10 7.642a2.361 2.361 0 00-2.05 3.525l3.217-3.217c-.35-.2-.75-.308-1.167-.308z" fill="#C2C6CD"/><path d="M4.667 15.425a.634.634 0 01-.409-.15A12.095 12.095 0 011.883 12.5c-.883-1.375-.883-3.617 0-5C3.917 4.317 6.875 2.483 10 2.483c1.833 0 3.642.634 5.225 1.825a.625.625 0 01-.75 1C13.108 4.275 11.558 3.733 10 3.733c-2.692 0-5.267 1.617-7.067 4.442-.625.975-.625 2.675 0 3.65a11.44 11.44 0 002.134 2.5.63.63 0 01.066.883.605.605 0 01-.466.217zM10 17.517a8.228 8.228 0 01-3.233-.667.625.625 0 01.483-1.15 6.994 6.994 0 002.742.567c2.691 0 5.266-1.617 7.066-4.442.625-.975.625-2.675 0-3.65-.258-.408-.541-.8-.841-1.167a.633.633 0 01.091-.883.625.625 0 01.884.092c.325.4.641.833.925 1.283.883 1.375.883 3.617 0 5-2.034 3.183-4.992 5.017-8.117 5.017z" fill="#C2C6CD"/><path d="M10.575 13.558a.632.632 0 01-.617-.508.613.613 0 01.5-.725 2.35 2.35 0 001.85-1.85.632.632 0 01.734-.5.626.626 0 01.5.733 3.58 3.58 0 01-2.85 2.85c-.042-.008-.075 0-.117 0zM1.667 18.958a.618.618 0 01-.442-.183.629.629 0 010-.883l6.225-6.225a.629.629 0 01.883 0 .629.629 0 010 .883l-6.225 6.225a.618.618 0 01-.441.183zM12.108 8.517a.618.618 0 01-.441-.184.629.629 0 010-.883l6.225-6.225a.629.629 0 01.883 0 .629.629 0 010 .883L12.55 8.333a.618.618 0 01-.442.184z" fill="#C2C6CD"/></svg><svg fill="none" viewBox="0 0 24 24" id="gallery" xmlns="http://www.w3.org/2000/svg"><path d="M15 22.75H9c-5.43 0-7.75-2.32-7.75-7.75V9c0-5.43 2.32-7.75 7.75-7.75h6c5.43 0 7.75 2.32 7.75 7.75v6c0 5.43-2.32 7.75-7.75 7.75zm-6-20C4.39 2.75 2.75 4.39 2.75 9v6c0 4.61 1.64 6.25 6.25 6.25h6c4.61 0 6.25-1.64 6.25-6.25V9c0-4.61-1.64-6.25-6.25-6.25H9z" fill="#fff"/><path d="M9 10.75c-1.52 0-2.75-1.23-2.75-2.75S7.48 5.25 9 5.25 11.75 6.48 11.75 8 10.52 10.75 9 10.75zm0-4a1.25 1.25 0 100 2.5 1.25 1.25 0 000-2.5zM2.67 19.7a.746.746 0 01-.41-1.37l4.93-3.31c1.08-.73 2.57-.64 3.55.19l.33.29c.5.43 1.35.43 1.84 0l4.16-3.57c1.06-.91 2.73-.91 3.8 0l1.63 1.4c.31.27.35.74.08 1.06-.27.31-.74.35-1.06.08l-1.63-1.4c-.5-.43-1.35-.43-1.85 0l-4.16 3.57c-1.06.91-2.73.91-3.8 0l-.33-.29c-.46-.39-1.22-.43-1.73-.08l-4.93 3.31c-.13.08-.28.12-.42.12z" fill="#fff"/></svg><svg fill="none" viewBox="0 0 24 25" id="gallery-blue" xmlns="http://www.w3.org/2000/svg"><path d="M15 23.25H9c-5.43 0-7.75-2.32-7.75-7.75v-6c0-5.43 2.32-7.75 7.75-7.75h6c5.43 0 7.75 2.32 7.75 7.75v6c0 5.43-2.32 7.75-7.75 7.75zm-6-20c-4.61 0-6.25 1.64-6.25 6.25v6c0 4.61 1.64 6.25 6.25 6.25h6c4.61 0 6.25-1.64 6.25-6.25v-6c0-4.61-1.64-6.25-6.25-6.25H9z" fill="#d45658"/><path d="M9 11.25c-1.52 0-2.75-1.23-2.75-2.75S7.48 5.75 9 5.75s2.75 1.23 2.75 2.75-1.23 2.75-2.75 2.75zm0-4a1.25 1.25 0 100 2.5 1.25 1.25 0 000-2.5zM2.67 20.2a.746.746 0 01-.41-1.37l4.93-3.31c1.08-.73 2.57-.64 3.55.19l.33.29c.5.43 1.35.43 1.84 0l4.16-3.57c1.06-.91 2.73-.91 3.8 0l1.63 1.4c.31.27.35.74.08 1.06-.27.31-.74.35-1.06.08l-1.63-1.4c-.5-.43-1.35-.43-1.85 0l-4.16 3.57c-1.06.91-2.73.91-3.8 0l-.33-.29c-.46-.39-1.22-.43-1.73-.08l-4.93 3.31c-.13.08-.28.12-.42.12z" fill="#d45658"/></svg><svg fill="none" viewBox="0 0 28 28" id="human" xmlns="http://www.w3.org/2000/svg"><path d="M14 12a4 4 0 100-8 4 4 0 000 8zM23 24a9 9 0 10-18 0" stroke="#fff" stroke-width="2" stroke-linecap="round" stroke-linejoin="round"/></svg><svg fill="none" viewBox="0 0 40 36" id="location" xmlns="http://www.w3.org/2000/svg"><path clip-rule="evenodd" d="M20 31.5s10-9.45 10-18c0-4.97-4.477-9-10-9s-10 4.03-10 9c0 8.55 10 18 10 18z" stroke="#d45658" stroke-width="2"/><path fill-rule="evenodd" clip-rule="evenodd" d="M20 16.5c1.84 0 3.333-1.44 3.333-3.214 0-1.775-1.492-3.215-3.333-3.215-1.841 0-3.333 1.44-3.333 3.215S18.159 16.5 20 16.5z" fill="#d45658" stroke="#d45658"/></svg><svg fill="none" viewBox="0 0 31 31" id="mail" xmlns="http://www.w3.org/2000/svg"><path stroke="#d45658" stroke-width="2" stroke-linecap="round" stroke-linejoin="round" d="M2.583 6.458h25.833v18.083H2.583z"/><path d="M2.583 6.458L15.5 18.083 28.417 6.458M2.583 24.542l9.042-10.334" stroke="#d45658" stroke-width="1.8"/><path clip-rule="evenodd" d="M28.417 24.542l-9.042-10.334 9.042 10.334z" stroke="#d45658" stroke-width="1.8"/></svg><svg version="1.0" viewBox="0 0 512 512" id="mail-white" xmlns="http://www.w3.org/2000/svg"><path d="M52 77.6c-7.5 2-12.9 5.4-18.3 11.4-11.7 13-12.3 34.3-1.5 47.5 5.6 6.7 190 181.5 195.3 185.1 8.9 6 15.5 7.8 28.5 7.8 12.8 0 18.7-1.6 28.5-7.9 2.8-1.8 44.2-40.5 92-86l87-82.8.3 115.4c.2 105 .1 115.8-1.4 119.8-2.3 6-7 11-12.9 13.7l-5 2.4H256c-187.5 0-188.5-.1-193-2.1-6-2.7-9.8-6.4-12.6-12.4l-2.4-5v-77.3c0-64.2-.2-77.8-1.4-80-4.6-8.9-15.5-9.4-20.6-.9-1.9 3.1-2 5.6-2 79.7 0 84.1.1 84.7 6 95.9 4 7.5 12.6 16.1 20.1 20.1 11.8 6.3 1.3 6 206 6 122.2 0 188.5-.4 192-1 18.7-3.5 35.1-19.3 38.9-37.3.7-3.6 1-47.6.8-145.2l-.3-140-3.3-6.7c-4-8.2-11.9-15.7-20-19l-5.7-2.3-200.5-.2c-174.2-.2-201.2 0-206 1.3zM457.7 102c5.6 3.4 8 11.3 5.2 17.3-1.3 2.9-186.2 178.9-192.1 182.9-8.7 5.9-21 5.9-29.6 0-5.9-4.1-190.8-180-192.1-182.9-2.8-6-.4-13.9 5.2-17.3 3.1-2 6.6-2 201.7-2s198.6 0 201.7 2z" fill="#fff"/></svg><svg version="1.0" viewBox="0 0 512 512" id="office" xmlns="http://www.w3.org/2000/svg"><g fill="#d45658"><path d="M112.5 2.5c-2.4 2.3-2.5 2.8-2.5 17V34H95.5c-23.8 0-24.8 1-25.3 23.8-.2 8.5-.1 17.5.3 20 .8 5.3 4.8 9.9 9.4 10.8l3.1.6V298l-6.7-.6c-15.5-1.4-30.4 4.6-42.8 17-13.9 14-20.6 30.3-20.8 50.6-.1 16.4 3.4 29.1 11.8 42 4.4 6.8 13.8 16.3 19.3 19.5l3.2 1.9V497H30.2c-15.5 0-17 .2-19 2-3 2.8-3 8.2 0 11l2.2 2h485.2l2.2-2c3-2.8 3-8.2 0-11-1.9-1.7-3.5-2-11.5-2H480v-63.5c0-62.2 0-63.5-2-65.5-3-3-8.3-2.7-10.9.6-2.1 2.6-2.1 3.5-2.1 65.5V497h-86v-69h45.2l3-3c2.4-2.5 2.9-3.6 2.4-5.8-1.5-5.9-2.6-6.2-27.7-6.2H379v-39h22.9c20.9 0 23.1-.2 25.2-1.9 3.2-2.6 3.2-8.6 0-11.2-2.1-1.7-4.3-1.9-25.2-1.9H379v-39h22.9c25.1 0 26.2-.3 27.7-6.2.5-2.2 0-3.3-2.4-5.8l-3-3H379v-37.9l23.1-.3 23.1-.3 2.4-2.8c2.9-3.4 3-5.6.3-9l-2-2.7-23.2-.2-23.2-.3-.3-22.3-.2-22.2h86v67.9c0 67.1 0 67.9 2.1 70.5 2.6 3.3 7.9 3.6 10.9.6 2-2 2-3.3 2-72.8 0-68.3-.1-70.8-2-73.9-3.2-5.4-6.3-6.7-16.6-7.1l-9.2-.4-.4-11c-.3-10.1-.5-11.1-2.7-12.9-3.2-2.6-7.3-2.4-9.9.4-2 2.1-2.2 3.4-2.2 13V192h-25v-17.3c0-19.6-.4-20.7-7.2-20.7-6.6 0-7.3 1.9-7.6 21.1l-.4 16.9H379v-51.5c0-48.4.1-51.5 1.8-51.5 3.1 0 8.3-4 9.8-7.5 1-2.5 1.4-7.8 1.4-20 0-18.7-.8-22.2-6.2-25.5-3.3-2-4.7-2-112.5-2H164v-9.3c0-8.5-.2-9.6-2.3-11.5-2.9-2.7-6.7-2.8-9.8-.3-2.2 1.7-2.4 2.9-2.7 11.5l-.4 9.6H125V19.5c0-14.2-.1-14.7-2.5-17-1.3-1.4-3.6-2.5-5-2.5s-3.7 1.1-5 2.5zm264.5 59V74H249.6l-2.3 2.2c-3.3 3-3.1 8 .3 10.7 2.6 2.1 3.5 2.1 59.5 2.1H364v408h-68v-99.8l2.9-.7c3.3-.7 6.5-3.8 8-7.8 1.7-4.4 1.4-33-.3-37.2-2.9-6.7-.1-6.5-75.5-6.5-49.3 0-68.7.3-70.5 1.2-5.1 2.3-6 5.1-6.4 20.6-.2 7.8-.1 16.2.2 18.7.9 5.4 4.5 10.1 8.6 11l3 .7V497H98V428.3l4.9-3.2c12.2-7.8 23.1-24.3 27.2-41 3-11.9 2.4-30.1-1.4-41.6-4.8-14.6-15-28.6-25.7-35.5l-5-3.2V89h61.4c60.5 0 61.4 0 64-2.1 3.3-2.6 3.6-7.9.6-10.9-2-2-3.3-2-70.5-2H85V62.2c0-6.5.3-12.2.7-12.5.3-.4 66-.7 146-.7H377v12.5zm-295.5 252c16.2 4.2 29.1 18.3 33.9 37.1 2.1 7.9 2.1 22.9 0 30.8-2.5 9.7-7.3 18.5-13.9 25.2-6.9 7-13.5 10.7-22.2 12.4-18 3.6-36.6-7.2-45.7-26.3-4.4-9.3-5.9-16.2-5.9-26.7s1.5-17.4 5.9-26.7c6.2-13 17.6-22.9 29.9-25.9 6.9-1.7 11.1-1.7 18 .1zM293 371v11H169v-22h124v11zm-69 76v50h-43V397h43v50zm57 0v50h-42V397h42v50zM83 465.7V497H62v-62.5h21v31.2z"/><path d="M140.4 122c-1.2.4-3.1 2.1-4.3 3.6-2 2.6-2.1 3.6-2.1 31.6 0 30.7.4 33.3 4.9 35.8 1.2.6 10 1 21.5 1H180l3.2-2.9 3.3-2.9.3-29.1c.4-39.9 1.6-38.1-26.5-38-9.8 0-18.8.4-19.9.9zm31.6 35.5V179h-23v-43h23v21.5zM210.4 124.4l-3.4 3.4v60.4l2.9 2.9 2.9 2.9H253l3.2-2.9 3.3-2.9.3-27.9c.4-31.2-.1-34.3-5.1-37.3-2.9-1.8-5.1-2-22-2h-18.9l-3.4 3.4zm34.6 33.1V179h-23v-43h23v21.5zM284.8 122.7c-1.4.9-3.1 2.7-3.7 4-.7 1.5-1.1 13-1.1 31.9v29.6l2.9 2.9 2.9 2.9H326l3.2-2.9 3.3-2.9.3-27.9c.4-31.2 0-34.3-5.1-37.3-2.9-1.8-5.1-2-21.7-2-15.5 0-18.9.3-21.2 1.7zm33.2 34.8V179h-23v-43h23v21.5zM140.4 225.4c-6.4 2.8-6.4 2.9-6.4 35.9v29.9l2.8 2.8c3.7 3.7 8 4.3 27.3 3.8 17.1-.3 19.8-1.2 21.8-7 .7-1.9 1.1-13.4 1.1-30 0-30.5-.4-32.8-6.4-35.3-4.8-2-35.6-2.1-40.2-.1zm31.4 35.3l-.3 21.8-11.2.3-11.3.3V239h23l-.2 21.7zM213.4 225c-1.2.4-3.1 2.1-4.3 3.6-2 2.6-2.1 3.5-2.1 32.6v30l2.8 2.8c3.7 3.7 8 4.3 27.3 3.8 23.7-.5 22.9.8 22.9-36.7 0-30.8-.4-33.1-6.4-35.6-2.7-1.1-7.8-1.5-20.8-1.4-9.5 0-18.3.4-19.4.9zm31.1 36v21.5l-11.2.3-11.3.3v-44.2l11.3.3 11.2.3V261zM286.4 225c-1.2.4-3.1 2.1-4.3 3.6-2 2.6-2.1 3.5-2.1 32.6v30l2.8 2.8c3.7 3.7 8 4.3 27.3 3.8 23.7-.5 22.9.8 22.9-36.7 0-30.8-.4-33.1-6.4-35.6-2.7-1.1-7.8-1.5-20.8-1.4-9.5 0-18.3.4-19.4.9zm31.1 36v21.5l-11.2.3-11.3.3v-44.2l11.3.3 11.2.3V261z"/></g></svg><svg version="1.0" viewBox="0 0 512 512" id="other" xmlns="http://www.w3.org/2000/svg"><g fill="#d45658"><path d="M42.5 10.5L40 12.9V232H26.5c-13.1 0-13.7.1-16 2.5C8 236.9 8 237.1 8 256s0 19.1 2.5 21.5c2 2.1 3.4 2.5 7.9 2.5H24l.2 96.8.3 96.8 3.7 7.6c4.5 9.1 10.3 14.7 19.6 19.1l6.7 3.2h163l6.7-3.2c9.3-4.4 15.1-10 19.6-19.1l3.7-7.6.3-96.8.2-96.8h5.6c4.5 0 5.9-.4 7.9-2.5 2.5-2.4 2.5-2.6 2.5-21.5s0-19.1-2.5-21.5c-2.3-2.4-2.9-2.5-15.9-2.5h-13.5l-.3-92.3-.3-92.2-3.6-6.5c-12.7-23.1-45.5-22.2-56.8 1.5-2.1 4.2-2.5 7-2.9 17.2l-.4 12.3H136V12.9l-2.5-2.4-2.4-2.5H44.9l-2.4 2.5zM120 128v104H56v-16h32v-16H56v-16h16v-16H56v-16h32v-16H56v-16h16v-16H56V88h32V72H56V56h16V40H56V24h64v104zm88.8-85.3c5.8 4.3 6.7 6.6 7 18.4l.4 10.9H184v-9.4c0-12.9 2.2-17.9 9.5-21.2 4-1.9 11.9-1.2 15.3 1.3zM168 104v16h-32V88h32v16zm48-8v8h-32V88h32v8zm0 80v56h-32V120h32v56zm-48-32v8h-32v-16h32v8zm0 56v32h-32v-64h32v32zm80 56v8H24v-16h224v8zm-16 117.6c0 70.6-.3 94.7-1.2 97.8-1.6 5.5-9.9 13.8-15.4 15.4-5.9 1.7-152.9 1.7-158.8 0-5.5-1.6-13.8-9.9-15.4-15.4-.9-3.1-1.2-27.2-1.2-97.8V280h192v93.6z"/><path d="M58.5 314.5l-2.5 2.4v134.2l2.5 2.4 2.4 2.5h150.2l2.4-2.5 2.5-2.4V316.9l-2.5-2.4-2.4-2.5H60.9l-2.4 2.5zM200 384v56H72V328h128v56z"/><path d="M88 352v8h96v-16H88v8zM104 384v8h64v-16h-64v8zM88 416v8h96v-16H88v8zM336 9.3c-4.9 1.6-13.3 10.2-14.8 15.3-.7 2.4-1.2 10-1.2 17.8V56h-5.5c-4.6 0-6 .4-8 2.5l-2.5 2.4v150.2l2.5 2.4c2 2.1 3.4 2.5 8 2.5h5.5v13.6c0 7.8.5 15.4 1.2 17.8 1.6 5.5 9.9 13.8 15.4 15.4 5.9 1.7 104.9 1.7 110.8 0 5.5-1.6 13.8-9.9 15.4-15.4.7-2.4 1.2-10 1.2-17.8V216h5.5c4.6 0 6-.4 8-2.5l2.5-2.4V60.9l-2.5-2.4c-2-2.1-3.4-2.5-8-2.5H464V42.4c0-16.3-1-20-6.7-26.4-7.3-8.2-6-8-65.7-7.9-34.9.1-53.3.5-55.6 1.2zm109.5 17.2c2.4 2.3 2.5 2.9 2.5 16V56H336V42.5c0-13.1.1-13.7 2.5-16l2.4-2.5h102.2l2.4 2.5zM464 80v8H320V72h144v8zm0 56v32H320v-64h144v32zm0 56v8H320v-16h144v8zm-16 37.5c0 13.1-.1 13.7-2.5 16l-2.4 2.5H340.9l-2.4-2.5c-2.4-2.3-2.5-2.9-2.5-16V216h112v13.5zM282.5 282.5l-2.5 2.4v214.2l2.5 2.4 2.4 2.5h214.2l2.4-2.5 2.5-2.4V284.9l-2.5-2.4-2.4-2.5H284.9l-2.4 2.5zM488 344v48h-59.1l-2.4 2.5-2.5 2.4V456H296V296h192v48zm-12 64.3c0 .1-8.1 8.3-18 18.2l-18 18V408h18c9.9 0 18 .1 18 .3zm12 29.7v18h-36.5l18-18c9.9-9.9 18.1-18 18.2-18 .2 0 .3 8.1.3 18zm0 42v8H296v-16h192v8z"/></g></svg><svg version="1.0" viewBox="0 0 512 512" id="package" xmlns="http://www.w3.org/2000/svg"><g fill="#fff"><path d="M74 17.6C56.3 21.4 39.2 34.7 31.1 51 25 63.5 24 69.6 24 96.7V120h16V98.1c0-12 .5-24.2 1-27.2 4.7-24.7 29.2-42 54-38.2 19.7 3.1 36.4 19 40 38.2.6 3.4 1 61.9 1 161.8v156.5l-5.7-5.2c-10.9-9.7-27.5-16-42.3-16-14.8 0-31.4 6.3-42.3 16l-5.7 5.2V136H24v151.2c0 168.5-.4 158.7 7 173.3 6.8 13.6 17.1 23.5 30.8 29.7 13.3 6 3.9 5.8 193.7 5.8 190.4 0 179.4.3 190.9-5.7 7.1-3.7 48.2-44.8 51.9-51.9 5.5-10.6 5.7-12.4 5.7-67.6V320h-16v99.1l-2.5 2.4-2.4 2.5h-46.2l-2.4 2.5-2.5 2.4v46.2l-2.5 2.4-2.4 2.5H130.8l5.1-5.6c6.3-7.1 12.7-19.8 14.6-28.9 1.3-6 1.5-32.7 1.5-182.3V88h24V72h-12.5c-12.4 0-12.5 0-12.5-2.3 0-3.8-3.9-14.7-7.7-21.7-2.1-3.7-6.7-9.5-10.7-13.5C117.2 19.3 95.3 13 74 17.6zm25.5 367.9c23.7 6.2 39.3 29.1 35.8 52.9-3 21.2-19.7 37.9-40.9 40.9-32.9 4.8-61.2-26.6-52.9-58.6 6.7-25.8 32.9-41.7 58-35.2zM476 440.3c0 .1-6.3 6.5-14 14.2l-14 14V440h14c7.7 0 14 .1 14 .3z"/><path d="M78 401.6c-22.7 8.2-29.3 36.2-12.5 52.9 6.5 6.6 12.5 9 22.5 9s16-2.4 22.5-9c6.6-6.5 9-12.5 9-22.5s-2.4-16-9-22.5c-8.2-8.2-22.2-11.6-32.5-7.9zm18.8 17.1c5 3.8 6.7 7 6.7 13.2 0 4.7-.5 6.4-2.7 9.3-7 9.2-19.2 8.9-26.2-.6-3.2-4.3-2.9-13.2.6-17.8 1.5-1.9 4.2-4.2 6-5.2 4.2-2.1 12-1.6 15.6 1.1zM208 17.3c-4.9 1.6-13.3 10.2-14.8 15.3-.9 3.1-1.2 23.2-1.2 79.4v75.2l-12 17.1c-13 18.6-13.9 20.9-9.5 25.2 2.2 2.3 3.2 2.5 12 2.5h9.5v40h16v-33.5l5.5 8.2c5.7 8.5 8 10.1 12.9 8.9 1.8-.4 5.6-5.1 13.2-16.1l10.7-15.5H288v96h-75.1l-2.4-2.5c-2.4-2.3-2.5-2.9-2.5-16V288h-16v13.6c0 7.8.5 15.4 1.2 17.8 1.6 5.5 9.9 13.8 15.4 15.4 3.1.9 30.1 1.2 111.6 1.2 121.8 0 113.4.6 121.1-8 2.4-2.6 4.9-6.6 5.5-8.8.8-2.8 1.2-16.3 1.2-45.6V232h9.5c8.8 0 9.8-.2 12-2.5 4.4-4.3 3.5-6.6-9.5-25.2l-12-17.1V112c0-56.2-.3-76.3-1.2-79.4-1.6-5.5-9.9-13.8-15.4-15.4-5.6-1.6-218.1-1.6-223.4.1zm80 36.9v22.2l-15.7-15.5c-20.7-20.3-20.8-20.4-41.3-20.4-12.9 0-16 .3-18.7 1.7-4.2 2.4-4.3 2.4-4.3-1.7 0-2.5.8-4.4 2.5-6l2.4-2.5H288v22.2zm48 5.8v28h-32V32h32v28zm93.5-25.5c1.7 1.6 2.5 3.5 2.5 6 0 4.1-.1 4.1-4.3 1.7-2.7-1.4-5.8-1.7-18.7-1.7-20.5 0-20.6.1-41.2 20.4L352 76.4V32h75.1l2.4 2.5zM244.3 57.4c1.8.8 12.3 10.6 23.5 21.8l20.3 20.4-.3 13.7-.3 13.7-21.8-17.4c-13.4-10.8-23.6-18.2-26.5-19.3-6.4-2.5-22.3-2.5-26.9 0-1.8.9-3.5 1.7-3.8 1.7-.4 0-.5-5.8-.3-12.8.3-12.2.4-13.1 3-16.4 4.2-5.5 7.8-6.8 19.6-6.8 6.6 0 11.4.5 13.5 1.4zm178.1 0c1.8.8 4.6 3.1 6.2 5.2 2.8 3.6 2.9 4.2 3.2 16.6l.4 12.8-4.4-1.7c-6-2.5-20.6-2.5-27 0-2.9 1.1-13.1 8.5-26.5 19.3L352.5 127l-.3-13.7-.3-13.7 20.3-20.4c11.2-11.2 21.7-21 23.3-21.8 4.1-1.8 22.5-1.9 26.9 0zm-189 48c1.9.8 11.6 8 21.6 16l18.2 14.6H247c-28.8 0-30.6-.3-35.5-6.1-6.4-7.7-3.3-20.5 6-24.5 4-1.7 11.7-1.7 15.9 0zM336 120v16h-32v-32h32v16zm86.4-14.6c1.8.8 4.6 3.1 6.2 5.2 2.4 3.1 2.9 4.7 2.9 9.4 0 4.6-.5 6.3-2.7 9.2-5 6.5-6.5 6.8-35.8 6.8h-26.2l18.2-14.6c10-8 19.6-15.2 21.3-15.9 4.2-1.8 11.9-1.9 16.1-.1zM216 152.5c0 .2-1.8 3-4 6.1l-4 5.7V152h4c2.2 0 4 .2 4 .5zm64 0c0 .9-55.3 80.5-55.9 80.5-.3 0-2.8-3.4-5.5-7.6-2.7-4.1-5.7-7.9-6.7-8.4-1-.6-5.9-1-10.9-1s-9-.4-8.8-.8c.2-.5 10.1-14.9 22.1-32l21.9-31.2h21.9c12 0 21.9.2 21.9.5zm56 27.5v28h-16v16h16v96h-32V152h32v28zm89.7 3.2c12 17.1 22 31.5 22.1 32 .2.4-3.8.8-8.8.8-5 0-9.9.4-10.9 1-1 .5-4 4.3-6.7 8.4-2.7 4.2-5.2 7.6-5.5 7.6-.6 0-55.9-79.6-55.9-80.5 0-.3 9.9-.5 21.9-.5h21.9l21.9 31.2zm6.3-25v6.1l-4-5.7c-2.2-3.1-4-5.9-4-6.1 0-.3 1.8-.5 4-.5h4v6.2zM288 189v19h-13.1c-7.2 0-12.9-.4-12.7-.8.4-1.1 25.2-37.1 25.6-37.2.1 0 .2 8.5.2 19zm78.4 1.3c6.4 9.2 11.6 17 11.6 17.3 0 .2-5.8.4-13 .4h-13v-19.2c0-16.5.2-19 1.4-17.3.7 1.1 6.5 9.6 13 18.8zm34 49.2c7.6 11 11.4 15.7 13.2 16.1 4.9 1.2 7.2-.4 12.9-8.9l5.5-8.2v76.6l-2.5 2.4-2.4 2.5H352v-96h37.7l10.7 15.5zM464 80v8h24v216h16V76.9l-2.5-2.4c-2.4-2.5-2.7-2.5-20-2.5H464v8zM56 88v8h16V80H56v8zM56 160v48h16v-96H56v48zM365.8 353.6c-2.6.9-11.6 6.8-20.7 13.6-11.3 8.4-16.5 11.7-17.4 11.1-.6-.5-3.8-3.1-7-5.6l-5.9-4.7h-43.3c-23.8 0-44.6.3-46.2.6l-3 .6 1.6 7.5 1.6 7.4 41.8-.1c41.6-.1 41.7-.1 44.7 2.2 1.6 1.2 3 2.5 3 2.9 0 .4-3.1 3-6.9 5.8l-6.9 5.1-48.7-.2-48.8-.3 4.6-4.7 4.5-4.7-4.5-6c-2.5-3.4-4.9-6.1-5.3-6.1-2 0-12.6 13.1-15.4 19-4.3 9-4.1 13.5.6 23.2 6.5 13.1 20.2 23.7 34.6 26.7 3.4.7 20.9 1.1 48.7 1.1h43.3l5.9-4.7c3.2-2.5 6.4-5.1 7-5.6.9-.6 6.1 2.7 17.4 11.1 19.4 14.5 22.3 15.6 37.2 15 11.9-.5 17.7-2.7 24.2-9.3 11.3-11.2 12.5-28.4 2.9-41.7L406 408l3.4-4.7c12.1-16.9 6.5-39.4-11.9-48.3-6.5-3.1-24.3-3.9-31.7-1.4zm24.6 15.8c1.8.8 4.6 3.1 6.2 5.2 2.4 3.1 2.9 4.7 2.9 9.4 0 4.6-.5 6.3-2.7 9.2-4.7 6.2-7.2 6.8-28.6 6.8h-18.9l-20.1 16.1-20.1 16-42.3-.3-42.3-.3-6-2.9c-3.2-1.6-7.9-5-10.4-7.5l-4.4-4.6 51.9-.5 51.9-.5 30.4-22.8c16.7-12.6 31.3-23.2 32.5-23.7 3.4-1.4 16.4-1.1 20 .4zm0 48c1.8.8 4.6 3.1 6.2 5.2 2.4 3.1 2.9 4.7 2.9 9.4 0 10.4-6.7 16-19.3 16-3.9 0-8.1-.4-9.4-.9-2.6-1-28.3-19.8-28.3-20.7 0-.3 2.7-2.8 6-5.5l6-4.8 16.3-.1c11.7 0 17.2.4 19.6 1.4z"/><path d="M368 384v8h16v-16h-16v8zM368 432v8h16v-16h-16v8z"/></g></svg><svg version="1.0" viewBox="0 0 512 512" id="party" xmlns="http://www.w3.org/2000/svg"><g fill="#fff"><path d="M195.5 32.8c-31.9 18-63.5 35.8-70.1 39.5-8 4.5-12.5 7.7-13.3 9.3-.8 1.8-1.1 24.8-1.1 80.2 0 72.1.2 77.9 1.8 79.8 2.6 3.3 140.1 82.4 143.2 82.4 3.1 0 140.6-79.1 143.2-82.4 1.6-1.9 1.8-7.7 1.8-80.6 0-72.9-.2-78.7-1.8-80.6C396.7 77.4 258.7 0 255.9 0c-1.3.1-28.5 14.8-60.4 32.8zm84.4-1.1c12.4 6.9 22.7 12.7 22.9 12.8.2.2-26.5 15.3-59.3 33.8l-59.6 33.5-21.7-12.2c-11.9-6.8-22.5-12.7-23.6-13.3-1.5-.8 8.1-6.6 57-34.1C228 33.9 255.1 19 255.9 19c.8 0 11.6 5.7 24 12.7zm68.2 38.4c14.9 8.4 26.8 15.3 26.7 15.4-.9.7-116.6 65.5-117.8 66-1.6.6-54.2-28.5-54.2-30 0-.8 116-66.4 117.5-66.5.5 0 13 6.8 27.8 15.1zM191 135.3l55.5 31.2.3 66.8c.1 36.7 0 66.7-.3 66.7-.4 0-27.1-15.3-59.6-34.1L128 231.8V99.9l3.8 2.1c2 1.1 28.7 16.1 59.2 33.3zm193 30.6v65.9l-58.9 34.1c-32.5 18.8-59.2 34.1-59.6 34.1-.3 0-.4-30-.3-66.7l.3-66.8 59-33.2c32.5-18.3 59.1-33.2 59.3-33.3.1 0 .2 29.7.2 65.9z"/><path d="M350 221.5v8.5h17v-17h-17v8.5zM316 238.5v8.5h17.1l-.3-8.3-.3-8.2-8.2-.3-8.3-.3v8.6zM282 255.5v8.5h17.1l-.3-8.3-.3-8.2-8.2-.3-8.3-.3v8.6zM28.9 103c-11.2 1.9-20.1 8.5-25.1 18.8l-3.3 6.7-.3 86c-.3 92.2-.2 95.8 4.6 109.4 1.6 4.5 18.5 36 41.5 77.3L85 470.9V512h17v-45.5l-40.1-72.1c-22-39.7-41-75.1-42.2-78.6-2.2-6.3-2.2-6.9-2.5-94.3l-.3-88 2.3-4.4c2.7-5.2 6-7.9 11.1-9.1 6.8-1.5 13.6 1.3 18.1 7.4 2.1 2.7 2.1 3.9 2.4 67.2.2 61 .1 64.7-1.6 67.2-6.4 9.5-7.3 23.2-2.1 33.3 1 2.1 18.1 21.7 38 43.6 19.9 21.9 36.2 39.9 36.3 40 .1.1 3-2.4 6.5-5.6l6.4-5.7-36.1-39.8C69.6 296.1 61.8 287 61 283.9c-2.4-8.9 3.8-17.8 12.9-18.7 3-.3 6.4.1 8.2.8 2 .9 14.3 13.7 34.5 36.1 27.3 30.3 32.4 35.5 40.1 40.8 24 16.4 38.9 38.7 45.9 68.6 1.3 5.8 1.7 15.2 2.1 53.7l.5 46.8h17l-.5-47.8c-.4-47.1-.4-47.8-3-58.2-8.2-33.5-26.8-60.8-53.4-78.2-4.6-3-12.7-11.2-31.5-32.2-13.9-15.4-28-31-31.3-34.5-9.9-10.4-15.9-13.3-27.5-13.2h-6.9l-.3-60.2c-.3-59.3-.3-60.3-2.5-64.9-2.8-6.2-9.6-13.4-15.3-16.3-4.1-2.1-6.5-2.7-14.5-3.9-1.1-.2-4.1 0-6.6.4zM472.2 103.2c-10.7 1.6-20.8 9.4-25.5 19.6-2.2 4.6-2.2 5.6-2.5 64.9l-.3 60.2H437c-8.7-.1-15.5 2.1-20.9 6.8-2.3 1.9-17.6 18.4-34 36.7-18.1 20-31.4 34-33.7 35.3-5.6 3.1-18.9 14.4-24.9 21.1-11.9 13.2-20.7 28-26.3 44.7-6.4 18.7-6.4 19.6-6.9 71.7l-.5 47.8h17l.5-46.8c.5-49.5.6-51.2 5.9-67.2 7-21.5 22.4-41.7 42.1-55.2 7.8-5.3 12.7-10.3 39.8-40.4 17-18.9 32.3-35.1 34.1-36 2.2-1.1 4.8-1.5 8.6-1.2 4.9.4 5.9.9 9.4 4.6 2.3 2.5 3.9 5.2 4 6.9.2 5.3-.4 8.8-1.9 11.3-.9 1.3-17.4 19.7-36.7 40.9l-35 38.4 6.4 5.8c3.6 3.2 6.5 5.7 6.6 5.6.1-.1 16.4-18.1 36.3-40s37-41.5 38-43.6c5.2-10.1 4.3-23.8-2.1-33.3-1.7-2.5-1.8-6.2-1.6-67.2.3-63.3.3-64.5 2.4-67.2 4.5-6.1 11.3-8.9 18.1-7.4 5.1 1.2 8.4 3.9 11.1 9l2.2 4.4v84.2c0 91.1-.1 92.4-5.4 103.9-1.3 2.7-19.7 36.5-41 75L410 466.4V512h17v-41.2l38.2-69.1c21-38.1 39.5-72.3 41-76.1 5.8-14.1 5.9-16 5.6-110.7l-.3-86.4-2.8-6c-6.6-14-21.1-21.7-36.5-19.3z"/></g></svg><svg fill="none" viewBox="0 0 31 31" id="phone" xmlns="http://www.w3.org/2000/svg"><path d="M16.075 23.919l3.676-3.284a1 1 0 011.283-.041L25.9 24.41a1 1 0 01.049 1.532l-1.136 1.015c-.749.67-1.782.919-2.725.574-2.493-.913-7.564-3.186-11.579-7.679-4.014-4.493-5.704-9.787-6.33-12.367-.238-.976.126-1.974.875-2.644L6.19 3.828a1 1 0 011.517.22l3.247 5.264a1 1 0 01-.185 1.27l-3.675 3.284" stroke="#d45658" stroke-width="2" stroke-linecap="round"/></svg><svg version="1.0" viewBox="0 0 512 512" id="quality" xmlns="http://www.w3.org/2000/svg"><g fill="#fff"><path d="M243 1.8c-3.6 1-12.4 5-19.7 8.9l-13.2 7-16.5-1.2c-18.3-1.3-26.5-.7-34.6 2.5-9.4 3.7-16.4 9.5-27.1 22.7L121.8 54l-14.7 4.6C89.3 64.2 82.2 67.8 75 75c-7.2 7.3-10.9 14.5-16.1 31.5l-4.2 14-9.4 8c-27.9 23.8-31.7 33-28.2 68l1.1 11-7.6 15.3c-14.2 28.3-14.2 39.2-.2 65.4l7.3 13.7-1.2 16.6c-1.3 18.2-.7 26.4 2.5 34.5 3.7 9.4 9.6 16.4 22.5 27l12.3 10 4.7 14.8c5.7 18 9.4 25 16.5 32.2 7.2 7.2 14.4 10.9 31.5 16l14 4.3 5 6c25.8 30.9 35.4 35.2 71 31.6l11-1.1 15.3 7.6c28.3 14.2 39.2 14.2 65.5.2l13.7-7.4 10.8.9c19.3 1.6 30 1.3 37.2-1.1 10.9-3.6 18.6-9.6 29.9-23.4l10-12.3 14.8-4.7c18.3-5.9 25.2-9.5 32.3-16.7 7.4-7.5 11-14.5 16.1-31.4l4.2-14 6-5c30.9-25.8 35.2-35.4 31.6-71l-1.1-11 7.6-15.3c14.2-28.3 14.2-39.2.2-65.4l-7.3-13.7 1.2-16.6c1.3-18.2.7-26.4-2.5-34.5-3.7-9.4-9.6-16.4-22.5-27l-12.3-10-4.7-14.8c-5.7-18-9.4-25-16.5-32.2-7.3-7.2-14.5-10.9-31.5-16.1l-14-4.2-8-9.4c-23.8-27.9-33-31.7-68-28.2l-11 1.1-15.3-7.6C267.8-.1 257.6-2 243 1.8zm38.9 27.7c19.5 9.7 19 9.6 36.9 7.5 16.3-1.9 22.1-1.4 29.3 2.2 5.5 2.8 8.2 5.3 18.9 17.6 6.9 7.9 13.3 14.8 14.3 15.3.9.6 8.1 2.9 15.9 5.3 16.7 5 21 7 25.9 12.3 4.9 5.1 5.8 7 12.3 26.9l5.6 17.1 12.6 10.3c23.4 19.2 24.1 21.1 21.3 56.1l-1.1 13.7 8.9 17.1 8.8 17.1v15.7l-8.9 17.9c-9.8 19.9-9.7 19.2-7.6 37.2 1.9 16.3 1.4 22.1-2.2 29.3-2.8 5.5-5.3 8.2-17.6 18.9-7.9 6.9-14.8 13.3-15.3 14.3-.6.9-2.9 8.1-5.3 15.9-5 16.7-7 21-12.3 25.9-5.1 4.9-7 5.8-26.9 12.3l-17.1 5.6-11.1 13.4c-6 7.3-12.5 14.5-14.4 15.9-7.6 5.9-14.8 6.7-40.9 4.6l-13.7-1.1-17.1 8.9-17.1 8.8h-15.7l-17.9-8.9c-19.9-9.8-19.2-9.7-37.2-7.6-16.3 1.9-22.1 1.4-29.3-2.3-5.5-2.7-8.2-5.2-18.9-17.5-6.9-7.9-13.4-14.8-14.3-15.4-1-.5-8.2-2.9-16-5.2-16.5-5-19.8-6.5-25-11.5-5.2-4.8-6.5-7.7-13.1-27.7L71 378.3l-13.4-11.1C34.9 348.5 34.3 347 37 312.6l1.2-14.4-8.9-17.1-8.8-17.1v-15.7l8.9-17.9c9.8-19.9 9.7-19.2 7.6-37.2-1.9-16.3-1.4-22.1 2.2-29.3 2.8-5.5 5.3-8.2 17.6-18.9 7.9-6.9 14.8-13.3 15.3-14.3.6-.9 2.9-8.1 5.3-15.9 4.9-16.5 6.5-19.9 11.5-25.1 4.8-5.2 7.7-6.5 27.7-13.1l17.1-5.6 11.1-13.4C163.5 34.9 165 34.3 199.5 37l14.5 1.2 14.8-7.8c18-9.5 20.9-10.5 29.1-10 5.7.4 8.5 1.4 24 9.1z"/><path d="M251.1 57.4c-8.7 4.8-5 18.6 4.9 18.6 5.1 0 10-4.9 10-9.9 0-7.5-8.3-12.4-14.9-8.7z"/><path d="M199.8 64.1c-32.1 9.7-58.4 25.1-82.6 48.4-17.8 17-29.9 33.7-40.8 56-48.9 99.6-6.5 220.2 94.3 268.2 77.4 36.9 170.4 19.6 229.6-42.7 69.8-73.3 74.4-185.4 11-264-21.3-26.4-53.4-49.4-85.3-61.3-16.4-6.1-24.6-8-28.5-6.7-4.1 1.3-6.5 4.8-6.5 9.3 0 5.4 3.1 8.4 11.3 10.7 47.6 13.7 84 41.2 108.5 82.1 33.9 56.4 33.3 128.5-1.4 185.7-25.1 41.3-68 71.9-115.4 82-96.9 20.8-193.1-41.1-213.8-137.8-14.7-68.3 11.4-139.5 66.4-180.9 19-14.2 37.6-23.6 59.6-30 11.7-3.4 14.8-5.9 14.8-11.7 0-4.5-2.3-8-6.2-9.3-4-1.4-3.7-1.5-15 2z"/><path d="M250.6 101.5c-4.7 1.7-9.4 5.9-11.3 10.3-.8 1.9-1.9 8.6-2.4 15-1 11.9-3.1 19.5-9.4 34.1-1.5 3.6-4 12.7-5.6 20.4-3.8 18.7-6.2 22.2-12 17.3l-3.1-2.6h-60l-2.9 2.9-2.9 2.9v159.4l2.9 2.9 2.9 2.9h60.1l3.3-2.9c4-3.5 2.6-3.6 28.8 3.3l19.5 5.1h86l5.8-2.7c14.9-7 25.1-24.1 23.3-39.1-.5-4.6-.3-5.3 2.6-8.6 1.7-1.9 4.3-6 5.7-9.1 2.2-4.7 2.6-6.9 2.7-15.5.1-9.8.2-10.2 3.7-15.5 4.6-6.9 7.1-16.6 6.4-23.9-.6-5.4-.6-5.5 3.8-9.3 16.3-14.3 12-41-7.9-50-5-2.3-5.6-2.3-49.9-2.6l-44.7-.3-2.6-5.1c-4-7.9-4.1-13.6-.5-24.6 7.1-21.1 4-38.9-9.1-52.8-5.9-6.2-11.2-9.5-18.7-11.8-6.6-1.9-9.4-2-14.5-.1zm17.1 24c8.9 7.6 11.2 21.1 6 35.5-3.6 9.9-4.3 18.6-2.3 27.3l1.6 6.8-4 3.8c-4.3 4-5 6.9-2.8 11.6 2.5 5.5 2.1 5.5 60.6 5.5h53.9l3.4 2.3c4.5 3 5.8 7.6 3.5 12.3-2.5 5.3-6.2 6.4-22.1 6.4-18.8 0-22.5 1.8-22.5 10.8 0 2.8.7 4.5 2.6 6.3 2.4 2.2 3.5 2.4 15.7 2.9l13.2.5-.2 4.7c-.2 8.5-6.3 14.8-14.3 14.8-4.7 0-9 4.7-9 9.7.1 6 4.6 10.3 10.9 10.3 2.6 0 3.1.4 3.1 2.2-.1 6.9-7.1 14.8-13.2 14.8-9.5 0-14.3 10.6-7.9 17.1 2.2 2.1 3.9 2.9 6.6 2.9 3.6 0 3.6.1 3 3.2-1 5.2-5.6 11.1-10.5 13.6-4.5 2.3-4.6 2.3-43.5 2l-39-.3-19.5-5.2c-10.7-2.8-21.2-5.4-23.2-5.8l-3.8-.6v-59.5c0-55.8.1-59.5 1.8-60 11.1-3.5 18.8-10.7 22.1-20.7 1.1-3.4 2.9-11.2 4.1-17.2 1.3-6.9 3.6-14.3 6.1-20 5.1-11.4 7.8-21.7 8.5-32.5.3-4.7.7-9 .9-9.7.6-1.9 5.5.2 10.2 4.2zm-73.7 156V347h-33V216h33v65.5z"/></g></svg><svg version="1.0" viewBox="0 0 512 512" id="reserv" xmlns="http://www.w3.org/2000/svg"><g fill="#fff"><path d="M192.5 1.4c-12.3 4.1-10.5 2.4-97.3 89-45.9 45.7-84.8 85.1-86.5 87.6-1.7 2.5-3.5 4.8-4 5.1-.5.3-.8.9-.7 1.3 0 .3-.8 3.6-2 7.2-2.5 8.1-2.7 20.8-.4 28.5 3.8 13.1 0 9 141.4 150.2 73.4 73.3 134.7 133.9 136.3 134.7 1.5.7 2.7 1.7 2.7 2.2 0 .5.4.7.9.3.5-.3 1.6.1 2.4.9.8.8 1.6 1.3 1.9 1.1.2-.2 2.6.2 5.3 1 7 2.2 21.3 1.9 28-.4 2.9-1 5.6-1.6 5.9-1.3.3.3.6 0 .6-.7s.5-.9 1-.6c.6.3 1 .2 1-.4 0-.5 1-1.3 2.3-1.6 3.4-1.1 168.2-165.9 172.8-172.9 10.1-15.3 10.6-36.2 1.4-52.3-1.7-2.9-16-18.1-35.2-37.4-19.1-19.2-32-32.9-31.4-33.3.6-.4 1.5-.5 2-.2.5.4 1.1.2 1.3-.3.1-.5 1.2-1.1 2.3-1.3 1.1-.1 2.2-.5 2.5-.8.8-.8 10.5-5.2 10.9-5 .2.1.7-.2 1-.7.3-.5 3.4-2.8 6.9-5.2 22.7-15.3 39.5-40.9 44.6-68.1 2-10.5 2.1-30.4.1-40.7-4.1-21.5-13.3-39-28.8-55C460.7 10.7 435.2 0 404.5 0c-13.8 0-24.9 1.8-36.3 5.8-7.5 2.7-23.8 11-26.4 13.5-.7.7-3.3 2.8-5.7 4.7-2.4 1.9-6.5 5.7-9 8.4-2.5 2.8-5.6 6.1-6.8 7.4-1.3 1.2-2.3 2.5-2.3 2.8 0 .8-6.2 9.8-7.3 10.5-.5.3-.9 1-.9 1.5-.1 1-4 9.6-4.8 10.4-.3.3-.6 1.3-.8 2.4-.2 1-.8 3-1.3 4.4-.9 2.4-2.2 1.3-34.2-30.5-31.6-31.4-33.6-33.2-41.2-36.9C219.8.7 219.1.5 208 .3c-7.6-.2-12.9.2-15.5 1.1zM218.6 20c2.4 1 5.1 2.5 6 3.2.9.7 17.6 17 37 36.2l35.3 35v11.8c0 6.4.3 12.3.7 13 .3.7-20-19.3-45.2-44.5L206.5 29l-31 31c-17.1 17.1-30.9 31.5-30.7 32.1.2.9 155.1 156 158.6 158.8 1.6 1.3 3.9-.7 26.8-23.5 14.4-14.3 25.2-24.4 25.5-23.6.3.6.9 1 1.4.6.5-.3.9 0 .9.5 0 .6.3 1 .8.9.7-.1 2.4.4 7.1 2.3 2.4 1 2.4 1.1-3.2 6.7l-5.7 5.7 25.3 25.3 25.2 25.2 5.8-5.8c3.1-3.2 5.7-6.2 5.7-6.7 0-.6-10.6-11.6-23.6-24.6l-23.7-23.7 7.9 1.9c4.4 1 9.1 1.9 10.7 1.9 1.5 0 2.7.3 2.7.7 0 .8 21.5.7 22.8-.1.4-.2 17 15.8 36.9 35.7 41.5 41.6 41.7 41.8 41.7 55.5.1 5.9-.3 8.5-1.2 9.1-.8.5-1.3 1.1-1.3 1.5.3 2.2-.1 3.5-1.9 5.4-1.1 1.2-2 2.5-2 2.9 0 .5-37 37.8-82.2 82.9-91.8 91.6-86.2 86.7-100.3 86.8-14.5 0-3.5 10-150.7-137.2C47 249.3 22.7 224.5 20.4 220c-3.9-7.5-4.1-18.9-.5-26.5 1.9-4 18.6-21.3 84-86.8 46-46.1 83.5-83 86-84.5 9.2-5.4 19.6-6.3 28.7-2.2zM418 18.1c3.5.5 6.9 1.4 7.6 1.9.6.6 1.3.7 1.6.5 1.4-1.4 24.8 8.8 24.8 10.7 0 .5.7.8 1.5.8s1.5.4 1.5 1c0 .5.6 1 1.4 1 2.5 0 19 17.1 24 24.8 5.2 8.1 7.9 13.6 6.9 14.6-.4.3-.2.6.4.6.9 0 3.4 6.5 3.8 10 .1.8.7 3.2 1.4 5.3.7 2.1 1.1 4.9.8 6.3-.2 1.3 0 2.4.4 2.4 2.2 0-.4 30.4-2.9 34.5-.4.5-.8 1.9-.9 3-.5 3-7.5 17.5-8.5 17.5-.4 0-.7.4-.5.9.1.5-1.9 3.7-4.5 7.2-12.3 16.7-30.4 28.7-51.3 34-11.2 2.8-29.4 3.1-39.7.6-35.4-8.6-60.9-34.1-69.5-69.5-2.4-10-2.2-28.4.5-39.5 3.8-15.3 11.3-29.3 22-40.9 5.4-5.7 17.3-15.2 18.7-14.8.4.1 1.1-.3 1.4-.8 1.7-2.6 24.6-11.8 27.7-11.1.5.1 1.6-.1 2.4-.4 4.4-1.8 19.8-2.1 29-.6zM311 160.8c4.7 9 15.7 22.1 24.9 29.6l3.5 2.8-17 16.8-17.1 16.8-67.9-67.9L169.5 91 188 72.5 206.5 54l51 51c35.6 35.6 51.8 52.5 53.5 55.8z"/><path d="M123.7 106.8c-3.1 3.2-5.7 6.2-5.7 6.7 0 .6 22.3 23.3 49.5 50.5l49.5 49.5 6-6c3.3-3.3 6-6.4 6-7 0-1-98-99.5-99-99.5-.3 0-3.1 2.6-6.3 5.8zM98.5 132c-3.2 3.3-5.7 6.2-5.4 6.4 7.9 8.6 98.7 98.6 99.4 98.6 1.3 0 11.5-10.2 11.5-11.5 0-1-98.1-99.5-99-99.5-.3 0-3.2 2.7-6.5 6zM43.5 192l-17 17 6.3 6.2 6.2 6.3L55.5 205c9.1-9.1 16.5-16.9 16.5-17.5 0-.6-2.6-3.6-5.8-6.8l-5.7-5.7-17 17zM68.2 216.3C59.3 225.2 52 233 52 233.5c0 .6 2.6 3.6 5.8 6.8l5.7 5.7 17-17 17-17-6-6c-3.3-3.3-6.2-6-6.5-6-.3 0-7.8 7.3-16.8 16.3zM92.7 241.8L76 258.5l6.3 6.3 6.2 6.2 17-17 17-17-6-6c-3.3-3.3-6.2-6-6.5-6-.3 0-8.1 7.5-17.3 16.8zM338.2 239.3l-6.2 6.2 12.5 12.5c6.8 6.8 12.3 12.6 12 12.8-.3.4 20.3 21.2 23.8 24 1.4 1.2 2.4.7 7.7-4.4 3.3-3.1 6-6.2 6-6.8 0-.6-11.1-12.3-24.8-25.9L344.5 233l-6.3 6.3zM116.9 266.7l-16.7 16.8 6.5 5.9 6.4 5.9 17-16.9 16.9-16.9-5.7-5.7c-3.2-3.2-6.2-5.8-6.8-5.8-.6 0-8.5 7.5-17.6 16.7zM313.7 263.8c-3.1 3.2-5.7 6.2-5.7 6.7 0 .6 24.1 25.1 53.6 54.6l53.6 53.6 5.9-6.2c3.2-3.4 5.9-6.6 5.9-7.1 0-.9-106.1-107.4-107-107.4-.3 0-3.1 2.6-6.3 5.8zM436.5 273.3c-20.4 6.8-29.7 28.3-20.4 47.5 3 6.2 12 14.9 16.1 15.7 1.1.3 2.5.8 3.2 1.3 1.4 1.1 18.7 1.3 20.1.2.6-.5 1.9-1 3-1.2 1.1-.1 2.5-.8 3.2-1.3.6-.6 2.7-2.1 4.5-3.4 8.3-6 12.8-15.4 12.8-26.9 0-6.4-.5-8.7-2.9-13.7-3.5-7.3-9.8-13.6-16.6-16.6-6.1-2.7-17.3-3.5-23-1.6zm16.4 18.2c4.1 2.1 7.9 7 8.7 11.1 2 10.5-8.6 20.8-18.9 18.5-9.4-2.2-15-12-11.6-20.8 1.2-3.3 5.6-8.2 8.4-9.3 3.2-1.4 10.4-1.1 13.4.5zM204.2 311.3C185.4 330.1 170 346 170 346.5c0 .6 30.5 31.5 67.8 68.8l67.7 67.7 34.8-34.8c19.1-19.1 34.7-35.2 34.7-35.7 0-1.3-134.2-135.5-135.5-135.5-.6 0-16.4 15.4-35.3 34.3zm24.5 25l-22.5 22.5-5.8-5.9-5.9-5.9 22.5-22.5 22.5-22.5 5.9 5.9 5.8 5.9-22.5 22.5zm41.8-3.3l6 6-22.5 22.5-22.5 22.5-6.2-6.2-6.3-6.3 22.2-22.2C253.5 337 263.7 327 264 327c.3 0 3.2 2.7 6.5 6zm24.2 24.2c2.9 2.9 5.3 5.7 5.3 6.3 0 .5-9.9 10.9-22 23l-22 22-6-6-6-6 22.2-22.2C278.5 362 288.7 352 289 352c.2 0 2.8 2.3 5.7 5.2zm8.8 53.8L281 433.5l-6.2-6.3-6.3-6.2 22.5-22.5 22.5-22.5 6.2 6.3 6.2 6.2-22.4 22.5zm24.5 24.5L305.5 458l-6-6-6-6 22.5-22.5 22.5-22.5 6 6 6 6-22.5 22.5zM288 289.2l-5.4 5.9 53.9 53.9 54 54 6.2-6.2 6.3-6.3-53.7-53.7c-29.6-29.6-54.2-53.7-54.8-53.7-.5.1-3.5 2.8-6.5 6.1zM406.3 60.2c-7.7 7.9-14.9 15.9-15.9 17.8-2.6 4.8-2.7 20-.2 24.9 1 1.8 1.5 3.7 1.2 4.2-.3.5.1.9.8 1 .7.1 3.5 2.6 6.2 5.5 3.7 4.1 5 6.4 5.3 9.1.3 4.7-.7 6.5-8.9 14.8l-6.9 7-7.4-7.7c-7.9-8.2-9.8-12.4-7.5-16.9.7-1.3 4-5.2 7.3-8.7l6.2-6.2-6.3-6.2-6.2-6.3-6.1 6c-6.7 6.5-11.9 13.8-11.9 16.7 0 1-.3 1.8-.7 1.8-1 0-.8 12.4.2 13.9.3.6.3 1.5 0 2.1-.3.5-.3 1 .2 1 .4 0 1.4 1.4 2.2 3.1 1.3 3 1.3 3.2-4 8.5l-5.4 5.4 6.3 6.3 6.2 6.2 5.2-5.2 5.1-5.1 7.9 7.9c4.3 4.3 8.2 7.9 8.6 7.9.5 0 7.2-6.4 15-14.3 16.2-16.4 18.6-20.3 18.6-30.7 0-8.4-2.7-14.4-9.8-22.1-9.1-9.8-8.7-13.6 2.9-24.9l6.6-6.5 7.9 8.2c6.7 6.9 8 8.7 8 11.5 0 4.4-2.5 8.2-9.3 14.3l-5.6 5 6.6 6.6 6.5 6.6 7.4-7.8c4.1-4.4 8.5-10 9.6-12.6 3-6.6 2.9-16.1 0-22.7l-2.3-5 5.1-5.1c2.7-2.8 5-5.5 5-6.1 0-1.3-10.3-11.4-11.6-11.4-.5 0-3.2 2.3-5.9 5l-4.9 5-8.1-8c-4.4-4.4-8.3-8-8.6-8-.3 0-6.8 6.4-14.6 14.2zM358.8 58.5c-2.6 1.5-4.1 4.6-4.2 9-.2 3.8 5.5 7.9 10.2 7.3 3.3-.4 7.2-5.2 7.2-8.9 0-6.2-7.7-10.5-13.2-7.4zM439.9 142.9c-3.2 3.3-3.6 5.8-1.4 10 1.6 3.2 3.3 4.1 7.5 4.1s5.9-.9 7.6-4.2c4.6-8.9-6.5-17-13.7-9.9z"/></g></svg><svg version="1.0" viewBox="0 0 512 512" id="school" xmlns="http://www.w3.org/2000/svg"><g fill="#d45658"><path d="M251.3 22.4l-2.8 2.4-.3 52.4-.3 52.4-17.2 17.2-17.2 17.2-76.1.2c-74 .3-76.3.4-78.3 2.3C55.3 169.9 0 257.6 0 260.1c.1 5.7 4.7 7.9 16.1 7.9H24v209h-9.5c-8.8 0-9.8.2-12 2.5-1.4 1.3-2.5 3.6-2.5 5s1.1 3.7 2.5 5l2.4 2.5h502.2l2.4-2.5c3.2-3.1 3.2-6.9 0-10-2.2-2.3-3.2-2.5-12-2.5H488V268h7.9c11.4 0 16-2.2 16.1-7.9 0-2.5-55.3-90.2-59.1-93.6-2-1.9-4.3-2-78.3-2.3l-76.1-.2-17.2-17.3-17.3-17.2V99h37.4c34.1 0 37.6-.2 39.4-1.8 4.4-3.6 3.9-6-4.2-18.2l-7.4-11.3 6.7-10.1c3.8-5.6 7.1-11.1 7.5-12.3.8-2.6-1.5-7.8-3.9-8.7-.9-.3-18.2-.6-38.5-.6h-36.8l-.4-5.7c-.4-4.6-1-6.1-3.2-8-3.4-2.9-5.8-2.9-9.3.1zm66.2 35.3c-2.9 4.3-4.5 7.9-4.5 9.8 0 1.9 1.6 5.5 4.5 9.8L322 84h-58V51h58l-4.5 6.7zm1.2 147.5l62.3 62.3 46 .3 46 .3V477H312.1l-.3-55.2-.3-55.3-2.3-4.4c-2.9-5.4-6.5-8.8-11.7-11.2-3.7-1.7-7.2-1.9-41.5-1.9s-37.8.2-41.5 1.9c-5.2 2.4-8.8 5.8-11.7 11.2l-2.3 4.4-.3 55.3-.3 55.2H39V268.1l46-.3 46-.3 62.2-62.3C227.5 171 255.7 143 256 143c.3 0 28.5 28 62.7 62.2zM197 179.8c0 .4-16.1 16.8-35.8 36.5L125.5 252l-51.8-.2-51.8-.3 21.6-34c11.9-18.7 22.3-35 23.1-36.3L68 179h64.5c35.5 0 64.5.3 64.5.8zm270.2 35.7l22.9 36-51.8.3-51.8.2-35.7-35.7c-19.7-19.7-35.8-36.1-35.8-36.6 0-.4 29.1-.6 64.6-.5l64.7.3 22.9 36zM293.6 366.3c2.3 2 2.7 3.1 2.8 8.3l.1 5.9h-81l.1-5.9c.1-5.2.5-6.3 2.8-8.3l2.7-2.3h69.8l2.7 2.3zM248 436.5V477h-33v-81h33v40.5zm49 0V477h-33v-81h33v40.5z"/><path d="M248 213c-16.3 2.5-31 12.3-39.5 26.5-5.5 9.2-7.7 17.3-7.7 28.5 0 48.3 57.5 73.4 92.9 40.7 11.4-10.7 17.5-24.7 17.5-40.7 0-11.2-2.2-19.2-7.8-28.7-11.1-18.7-34-29.5-55.4-26.3zm25 18.6c25.2 11.9 31.1 45.2 11.4 64.8-27.1 27.1-73.2 4.1-68.3-34.2 1.5-11.3 10.5-24.4 20.2-29.4 8.2-4.1 11-4.8 20.7-4.5 8.3.2 10.3.6 16 3.3z"/><path d="M250.4 239.1c-1.4 1.6-1.9 4-2.2 11.3l-.4 9.4-9.4.4c-7.8.3-9.8.7-11.5 2.4-2.8 2.8-2.8 8 0 10.7 2 2.1 3.1 2.2 17.1 2.2 20.2 0 19.5.7 19.5-19.4 0-13.2-.2-15.1-1.9-17-2.6-2.8-8.6-2.9-11.2 0zM60.7 294.1c-4.2 2.4-4.7 6.4-4.7 35.3 0 18.3.4 28.3 1.1 30 2 4.3 5 4.7 28.3 4.4 21.5-.3 21.8-.3 23.7-2.7 1.8-2.2 1.9-4.3 1.9-32.3v-30l-2.9-2.9-2.9-2.9H83.8c-13.3 0-22 .5-23.1 1.1zM96 316.5v8.5H71v-17h25v8.5zm0 28v4.5H71v-9h25v4.5zM132.3 294.8c-1.2.9-2.7 3-3.2 4.5-1.6 4.1-1.5 56.8.1 60.2 1.8 4 6.2 4.7 28.9 4.3 18.7-.3 20.9-.5 22.8-2.2 2-1.9 2.1-2.7 2.1-32.3v-30.5l-2.9-2.9-2.9-2.9h-21.4c-18.6 0-21.6.3-23.5 1.8zm35.7 21.7v8.6l-12.2-.3-12.3-.3-.3-8.3-.3-8.2H168v8.5zm0 28v4.6l-12.2-.3-12.3-.3-.3-4.3-.3-4.2H168v4.5zM331.9 295.9l-2.9 2.9v30.5c0 29.6.1 30.4 2.1 32.3 1.9 1.7 4.1 1.9 22.8 2.2 22.7.4 27.1-.3 28.9-4.3 1.6-3.4 1.7-55.9.1-60.3-2-5.8-3.6-6.2-26.9-6.2h-21.2l-2.9 2.9zm36.9 20.3l-.3 8.3-12.2.3-12.3.3V308h25.1l-.3 8.2zm0 28l-.3 4.3-12.2.3-12.3.3V340h25.1l-.3 4.2zM403.9 295.9l-2.9 2.9v30c0 28 .1 30.1 1.9 32.3 1.9 2.4 2.2 2.4 23.7 2.7 23.3.3 26.3-.1 28.3-4.4.7-1.7 1.1-11.7 1.1-30 0-29.2-.5-33-4.8-35.3-1.3-.7-10-1.1-23.2-1.1h-21.2l-2.9 2.9zm37.1 20.6v8.5h-25v-17h25v8.5zm0 28v4.5h-25v-9h25v4.5zM58 391.7c-2 2.6-2.1 3.5-1.8 29.5.3 24.1.5 26.9 2.1 28.5 1.6 1.6 4.3 1.8 24.7 2.1l23 .3 2.5-2.5 2.5-2.5v-26.9c0-26.8 0-26.9-2.3-29-2.3-2.1-3.1-2.2-25.4-2.2H60.1l-2.1 2.7zm38 16.8v4.5H71v-9h25v4.5zm0 24v4.5H71v-9h25v4.5zM130.9 390.9c-2.4 1.9-2.4 2-2.7 27.7-.3 27.6.1 30.3 4.4 32.3 1.6.7 10.1 1.1 23.8 1.1 20.1 0 21.5-.1 24-2.1l2.6-2v-27.5c0-26.1-.1-27.5-2-29.4-1.9-1.9-3.3-2-24.9-2-21 0-23.1.2-25.2 1.9zm37.1 17.6v4.5h-25v-9h25v4.5zm0 24v4.5h-25v-9h25v4.5zM331 391c-1.9 1.9-2 3.3-2 29.4v27.5l2.6 2c2.5 2 3.9 2.1 24 2.1 13.7 0 22.2-.4 23.8-1.1 4.3-2 4.7-4.7 4.4-32.3-.3-25.7-.3-25.8-2.7-27.7-2.1-1.7-4.2-1.9-25.2-1.9-21.6 0-23 .1-24.9 2zm38 17.5v4.5h-25v-9h25v4.5zm0 24v4.5h-25v-9h25v4.5zM403.2 391.3c-2.1 2.3-2.2 3-2.2 29.1v26.7l2.5 2.5 2.5 2.5 23-.3c20.4-.3 23.1-.5 24.7-2.1 1.6-1.6 1.8-4.4 2.1-28.5.3-26 .2-26.9-1.8-29.5l-2.1-2.7h-23.3c-23 0-23.3 0-25.4 2.3zm37.8 17.2v4.5h-25v-9h25v4.5zm0 24v4.5h-25v-9h25v4.5z"/></g></svg><svg fill="none" viewBox="0 0 30 30" id="soc-fb" xmlns="http://www.w3.org/2000/svg"><rect width="30" height="30" rx="15" fill="#0B84EE"/><path d="M16.243 15.274h2.791l.439-2.854h-3.23v-1.559c0-1.185.384-2.236 1.486-2.236H19.5v-2.49C19.189 6.093 18.53 6 17.288 6c-2.597 0-4.119 1.38-4.119 4.522v1.898H10.5v2.854h2.669v7.842c.529.08 1.064.134 1.614.134.496 0 .981-.046 1.46-.11v-7.866z" fill="#fff"/></svg><svg fill="none" viewBox="0 0 30 30" id="soc-yt" xmlns="http://www.w3.org/2000/svg"><rect width="30" height="30" rx="15" fill="#F40000"/><path fill-rule="evenodd" clip-rule="evenodd" d="M8.447 20.293a1.926 1.926 0 01-.783-.452 1.864 1.864 0 01-.481-.753c-.55-1.473-.714-7.623.346-8.837a2.057 2.057 0 011.387-.677c2.844-.298 11.632-.258 12.641.1.284.09.544.241.759.443.215.201.381.448.485.721.602 1.523.622 7.056-.081 8.52-.187.38-.5.688-.887.875-1.06.517-11.98.508-13.386.06zm4.516-2.886l5.098-2.588-5.098-2.607v5.195z" fill="#fff"/></svg><svg version="1.0" viewBox="0 0 94 94" id="trash" xmlns="http://www.w3.org/2000/svg"><g fill="#d45658"><path d="M30.5 2.5C28.9 4 28 6.1 28 8v3h-8.5c-7.8 0-8.8.2-11 2.5-3.4 3.3-3.3 7.8.3 11.9 2.8 3.2 2.8 3.3 5.2 33.1 2.4 30 2.4 30 5.1 32.8l2.7 2.7h50.4l2.7-2.7c2.7-2.8 2.7-2.8 5.1-32.8 2.4-29.8 2.4-29.9 5.2-33.1 3.6-4.1 3.7-8.6.3-11.9-2.2-2.3-3.2-2.5-11-2.5H66V8c0-1.9-.9-4-2.5-5.5C61.2.1 60.6 0 47 0S32.8.1 30.5 2.5zm30.3 6.2c.3 2.3.3 2.3-13.7 2.3-13 0-14.1-.1-14.1-1.8 0-1 .3-2.2.7-2.6.4-.3 6.6-.5 13.7-.4 12.7.3 13.1.4 13.4 2.5zm21.6 9.2c.4.5.3 1.6 0 2.5-.5 1.4-4.5 1.6-35.4 1.6s-34.9-.2-35.4-1.6c-.3-.9-.4-2 0-2.5.7-1.2 70.1-1.2 70.8 0zm-5.8 15.8c-.3 3.2-1.3 14.3-2.1 24.8-.8 10.4-1.8 21.4-2.1 24.3l-.5 5.2H22.1l-.5-5.3c-.3-2.8-1.3-13.8-2.1-24.2-.8-10.5-1.8-21.6-2.1-24.8l-.6-5.7h60.4l-.6 5.7z"/><path d="M28.4 34.1c-.9 1.5 1.6 45 2.8 47.2 1 2 3.6 2.3 4.4.4.6-1.7-2.3-46.3-3.1-47.7-.8-1.3-3.2-1.3-4.1.1zM45.2 34.2c-1.5 1.5-1.7 45.5-.2 47.8.7 1.2 1.3 1.2 2.7.4 1.6-1 1.8-3.3 2.1-23.9.2-15.9-.1-23.2-.9-24.1-1.4-1.7-2.2-1.7-3.7-.2zM61.5 34c-.8 1.4-3.7 46-3.1 47.7.8 1.9 3.4 1.6 4.4-.5 1.2-2.1 3.7-45.6 2.8-47.1-.9-1.4-3.3-1.4-4.1-.1z"/></g></svg><svg fill="none" viewBox="0 0 30 30" id="wishlist" xmlns="http://www.w3.org/2000/svg"><g clip-path="url(#bfclip0_327_690)" fill="#fff"><path d="M17.373.094a5.367 5.367 0 00-1.623.691c-.188.117-.533.434-.78.692a4.418 4.418 0 00-1.2 3.035c0 1.857 1.142 3.978 3.527 6.568 1.107 1.201 3.767 3.574 4.3 3.844.317.158.522.07 1.284-.545 3.44-2.772 5.959-5.777 6.785-8.092.521-1.447.41-2.848-.305-4.06-1.506-2.532-4.998-2.983-7.078-.909l-.428.422-.205-.246C21.217.961 20.215.357 19.424.141c-.51-.135-1.547-.159-2.051-.047zm1.494 1.219a3.267 3.267 0 012.35 1.746c.199.398.351.515.668.515.304-.006.44-.117.68-.586.117-.222.357-.539.58-.761.65-.65 1.4-.961 2.314-.961 1.12.005 2.115.527 2.719 1.43 1.341 2.015.293 4.575-3.393 8.267-1.008 1.008-1.494 1.447-2.818 2.555-.082.064-.176.005-.727-.452-2.707-2.255-4.781-4.634-5.683-6.521-.54-1.125-.668-1.922-.452-2.783.159-.627.41-1.06.891-1.541a3.178 3.178 0 011.84-.932c.44-.064.55-.064 1.031.024z"/><path d="M.31 2.59c-.333.164-.392.715-.1.99.147.14.177.14 1.507.17 1.295.03 1.37.041 1.652.176.38.187.727.539.89.908.083.187.657 2.941 1.6 7.682.803 4.066 1.465 7.406 1.465 7.43 0 .017-.392.034-.879.034-1.283 0-1.687.118-2.18.627-.345.352-.486.727-.486 1.278 0 .392.024.521.164.802.176.364.487.674.873.88l.252.134 11.034.018 11.033.011.175-.17c.282-.287.2-.831-.152-.99-.117-.052-2.695-.07-10.904-.07-11.942 0-11.016.03-11.192-.393a.606.606 0 01.194-.72c.152-.117.217-.117 9.668-.117 10.535 0 9.814.029 9.996-.37.047-.105.34-1.488.656-3.082l.58-2.894-.117-.211c-.147-.281-.498-.416-.756-.293-.328.164-.357.264-.896 2.953l-.516 2.578-7.617.018-7.611.011-1.108-5.548c-.61-3.059-1.12-5.59-1.137-5.631-.017-.053.58-.07 2.86-.07h2.883l.17-.17c.181-.188.222-.463.105-.727-.14-.305-.094-.305-3.305-.334L6.13 7.47l-.281-1.406c-.229-1.154-.317-1.482-.493-1.84-.38-.773-1.148-1.394-1.986-1.617C2.96 2.502.527 2.484.31 2.59zM9.2 25.137c-.968.357-1.6 1.171-1.683 2.174a2.44 2.44 0 00.774 1.98c1.248 1.178 3.205.82 3.96-.727.188-.392.2-.44.2-1.054 0-.604-.012-.668-.187-1.037a2.446 2.446 0 00-1.178-1.202c-.399-.199-.486-.222-1.002-.234-.451-.017-.627.006-.885.1zm1.194 1.183c.475.147.856.692.856 1.23 0 .3-.27.792-.533.967-.54.358-1.125.3-1.576-.158-.622-.615-.475-1.57.298-1.957.34-.17.592-.187.955-.082zM20.45 25.137c-.968.357-1.6 1.171-1.683 2.174a2.44 2.44 0 00.774 1.98c1.248 1.178 3.205.82 3.96-.727.188-.392.2-.44.2-1.054 0-.604-.012-.668-.187-1.037a2.446 2.446 0 00-1.178-1.202c-.399-.199-.486-.222-1.002-.234-.451-.017-.627.006-.885.1zm1.194 1.183c.475.147.856.692.856 1.23 0 .3-.27.792-.533.967-.54.358-1.125.3-1.576-.158-.622-.615-.475-1.57.298-1.957.34-.17.592-.187.955-.082z"/></g><defs><clipPath id="bfclip0_327_690"><path fill="#fff" d="M0 0h30v30H0z"/></clipPath></defs></svg></svg>